<?xml version="1.0" encoding="utf-8"?>
<!-- Generated by IcoMoon.io -->
<!DOCTYPE svg PUBLIC "-//W3C//DTD SVG 1.1//EN" "http://www.w3.org/Graphics/SVG/1.1/DTD/svg11.dtd">
<svg version="1.1" xmlns="http://www.w3.org/2000/svg" xmlns:xlink="http://www.w3.org/1999/xlink" width="32" height="32" viewBox="0 0 32 32">
<path fill="#d8d8d8" d="M27.275 12.319c-1.242-3.357-3.843-5.958-7.117-7.172 0.67-0.478 1.577-0.747 2.546-0.753 2.926 0 5.296 2.37 5.296 5.294-0.006 0.971-0.274 1.877-0.738 2.654zM26.588 16.395c0 2.97-1.227 5.651-3.198 7.575l2.152 2.153c0.157 0.157 0.254 0.374 0.254 0.613 0 0.479-0.388 0.867-0.867 0.867-0.239 0-0.456-0.097-0.613-0.254l-0.307-0.306-1.963-1.962c-1.715 1.195-3.797 1.902-6.046 1.902s-4.332-0.706-6.046-1.902l-2.269 2.268c-0.157 0.157-0.374 0.254-0.614 0.254-0.479 0-0.867-0.388-0.867-0.867 0-0.239 0.097-0.456 0.254-0.613l0.307-0.306 1.846-1.847c-1.974-1.92-3.198-4.601-3.198-7.569 0-0.002 0-0.005 0-0.007 0-5.848 4.741-10.588 10.588-10.588s10.588 4.741 10.588 10.588zM20.942 15.69h-4.235v-4.235c0-0.39-0.316-0.706-0.706-0.706s-0.706 0.316-0.706 0.706v5.647h5.647c0.39 0 0.706-0.316 0.706-0.706s-0.316-0.706-0.706-0.706zM4.725 12.319c-0.451-0.753-0.719-1.659-0.725-2.628 0-2.925 2.37-5.296 5.294-5.296 0.962 0 1.853 0.277 2.63 0.726-3.357 1.241-5.958 3.842-7.173 7.115z"></path>
</svg>
