<?xml version="1.0" encoding="utf-8"?>
<!-- Generated by IcoMoon.io -->
<!DOCTYPE svg PUBLIC "-//W3C//DTD SVG 1.1//EN" "http://www.w3.org/Graphics/SVG/1.1/DTD/svg11.dtd">
<svg version="1.1" xmlns="http://www.w3.org/2000/svg" xmlns:xlink="http://www.w3.org/1999/xlink" width="43" height="32" viewBox="0 0 43 32">
<path fill="#d8d8d8" d="M22.876 14.697c-0.356 0.236-0.83 0.236-1.422 0.356-0.592 0-1.067-0.119-1.422-0.356l-18.964-10.43c1.422-2.608 4.148-4.267 7.23-4.267h26.075c3.081 0 5.808 1.778 7.23 4.267l-18.727 10.43zM10.194 11.972l-8.652 16.475c-0.961-1.313-1.539-2.959-1.541-4.74v-15.409c0-0.592 0.119-1.186 0.236-1.778l9.957 5.452zM18.846 16.711c0.83 0.475 1.778 0.592 2.608 0.592s1.778-0.119 2.608-0.592l6.4-3.556 9.008 17.067c-1.422 1.186-3.2 1.778-5.097 1.778h-26.075c-1.897 0-3.675-0.592-5.097-1.778l9.125-17.067 6.519 3.556zM42.432 6.519c0.119 0.592 0.236 1.186 0.236 1.778v15.408c-0.002 1.782-0.58 3.428-1.557 4.764l-8.636-16.379 9.957-5.572z"></path>
</svg>
