<?xml version="1.0" encoding="utf-8"?>
<!-- Generated by IcoMoon.io -->
<!DOCTYPE svg PUBLIC "-//W3C//DTD SVG 1.1//EN" "http://www.w3.org/Graphics/SVG/1.1/DTD/svg11.dtd">
<svg version="1.1" xmlns="http://www.w3.org/2000/svg" xmlns:xlink="http://www.w3.org/1999/xlink" width="37" height="32" viewBox="0 0 37 32">
<path fill="#d8d8d8" d="M30.033 26.925h-5.177l-4.143 4.143c-1.243 1.243-2.9 1.243-4.143 0l-4.143-4.143h-5.177c-4.039 0-7.25-3.211-7.25-7.146v-12.634c0-3.935 3.211-7.146 7.25-7.146h22.784c4.039 0 7.25 3.211 7.25 7.146v12.738c0 3.832-3.211 7.042-7.25 7.042zM10.875 10.355c-1.968 0-3.624 1.657-3.624 3.624s1.657 3.624 3.624 3.624c1.968 0 3.624-1.657 3.624-3.624s-1.657-3.624-3.624-3.624zM26.409 10.355c-1.968 0-3.624 1.657-3.624 3.624s1.657 3.624 3.624 3.624 3.624-1.657 3.624-3.624-1.657-3.624-3.624-3.624z"></path>
</svg>
