<?xml version="1.0" encoding="utf-8"?>
<!-- Generated by IcoMoon.io -->
<!DOCTYPE svg PUBLIC "-//W3C//DTD SVG 1.1//EN" "http://www.w3.org/Graphics/SVG/1.1/DTD/svg11.dtd">
<svg version="1.1" xmlns="http://www.w3.org/2000/svg" xmlns:xlink="http://www.w3.org/1999/xlink" width="26" height="32" viewBox="0 0 26 32">
<path fill="#d8d8d8" d="M1.291 14.063c-0.718 1.578-1.291 3.731-1.291 5.74 0 7.031 5.309 12.197 12.771 12.197 7.605 0 13.058-5.166 13.058-12.197 0-3.013-0.43-4.448-1.865-6.888-1.004-1.578-1.435-3.013-1.722-4.305-0.287 0.431-0.43 0.861-0.574 1.435-0.718 2.439-0.574 5.453-0.574 5.453 0 0.574-0.287 1.004-0.718 1.148s-1.004 0-1.291-0.43c-0.143-0.143-2.152-3.013-3.157-5.022-1.865-4.161-1.865-8.61-1.722-11.193-2.009 1.148-4.879 3.587-5.883 8.753-0.861 5.022 0.861 9.901 0.861 9.901 0.143 0.43 0.143 0.861-0.143 1.148s-0.717 0.43-1.148 0.43c-0.144 0-3.444-0.861-5.596-4.305-0.43-0.431-0.718-1.148-1.004-1.865z"></path>
</svg>
