<?xml version="1.0" encoding="utf-8"?>
<!-- Generated by IcoMoon.io -->
<!DOCTYPE svg PUBLIC "-//W3C//DTD SVG 1.1//EN" "http://www.w3.org/Graphics/SVG/1.1/DTD/svg11.dtd">
<svg version="1.1" xmlns="http://www.w3.org/2000/svg" xmlns:xlink="http://www.w3.org/1999/xlink" width="32" height="32" viewBox="0 0 32 32">
<path fill="#d8d8d8" d="M16 1.919c7.764 0 14.080 6.316 14.080 14.081 0 0.010 0 0.022 0 0.034 0 3.877-1.578 7.385-4.127 9.917-2.534 2.552-6.043 4.131-9.921 4.131-0.011 0-0.022 0-0.033-0-7.762 0-14.078-6.317-14.078-14.082s6.316-14.080 14.080-14.080zM16-0.001c-8.822 0-16 7.18-16 16 0 8.825 7.178 16.002 16 16.002 8.824 0 16.003-7.178 16-16.002 0-8.821-7.178-16-16-16z"></path>
<path fill="#d8d8d8" d="M17.574 13.547l-0.001-0.013-10.451-3.274 7.352 8.079-0.012 0.020 0.045 0.013v0.004l0.002-0.003 10.366 3.369-7.302-8.195zM16 17.311c-0.725 0-1.312-0.587-1.312-1.312s0.587-1.312 1.312-1.312c0.703 0.028 1.262 0.605 1.262 1.312s-0.559 1.284-1.259 1.312z"></path>
</svg>
