<?xml version="1.0" encoding="utf-8"?>
<!-- Generated by IcoMoon.io -->
<!DOCTYPE svg PUBLIC "-//W3C//DTD SVG 1.1//EN" "http://www.w3.org/Graphics/SVG/1.1/DTD/svg11.dtd">
<svg version="1.1" xmlns="http://www.w3.org/2000/svg" xmlns:xlink="http://www.w3.org/1999/xlink" width="32" height="32" viewBox="0 0 32 32">
<path fill="#d8d8d8" d="M23.040 14.040h-14.080c-0.53 0-0.96 0.43-0.96 0.96s0.43 0.96 0.96 0.96h14.080c0.53 0 0.96-0.43 0.96-0.96s-0.43-0.96-0.96-0.96zM23.040 19.028h-14.080c-0.53 0-0.96 0.43-0.96 0.96s0.43 0.96 0.96 0.96h14.080c0.53 0 0.96-0.43 0.96-0.96s-0.43-0.96-0.96-0.96zM23.040 24.016h-14.080c-0.53 0-0.96 0.43-0.96 0.96s0.43 0.96 0.96 0.96h14.080c0.53 0 0.96-0.43 0.96-0.96s-0.43-0.96-0.96-0.96z"></path>
<path fill="#d8d8d8" d="M27.44 4h-4.44v-2h-2.754c-1.056-1.21-2.605-2-4.303-2s-3.193 0.79-4.215 2h-2.727v2h-4.44c-1.414 0-2.56 1.146-2.56 2.56v22.88c0 1.414 1.146 2.56 2.56 2.56h22.88c1.414 0 2.56-1.146 2.56-2.56v-22.88c0-1.414-1.146-2.56-2.56-2.56zM10.92 3.92h1.533v-0.010h0.284c0.648-1.133 1.809-1.99 3.205-1.99s2.673 0.857 3.322 1.99h0.31v0.010h1.507v4.16h-10.16v-4.16zM28.080 29.44c0 0.353-0.287 0.64-0.64 0.64h-22.88c-0.353 0-0.64-0.287-0.64-0.64v-22.88c0-0.353 0.287-0.64 0.64-0.64h4.44v4.080h14v-4.080h4.44c0.353 0 0.64 0.287 0.64 0.64v22.88z"></path>
</svg>
