<?xml version="1.0" encoding="utf-8"?>
<!-- Generated by IcoMoon.io -->
<!DOCTYPE svg PUBLIC "-//W3C//DTD SVG 1.1//EN" "http://www.w3.org/Graphics/SVG/1.1/DTD/svg11.dtd">
<svg version="1.1" xmlns="http://www.w3.org/2000/svg" xmlns:xlink="http://www.w3.org/1999/xlink" width="32" height="32" viewBox="0 0 32 32">
<path fill="#d8d8d8" d="M31.144 23.301c-0.828-1.38-0.813-1.406-0.813-1.406s-2.858 0.802-3.39-1.937h-1.656s-0.457 2.743-3.377 1.932c-0.557 0.965-0.847 1.439-1.139 1.911 0.266-0.458 2.55 1.138 0.265 3.305l0.887 1.459s2.523-1.089 3.35 1.885h1.675s0.525-2.733 3.363-1.925c0.808-1.379 0.822-1.393 0.822-1.393s-2.143-1.848 0.012-3.83zM26.076 27.134c-0 0-0.001 0-0.001 0-1.067 0-1.932-0.865-1.932-1.932s0.864-1.931 1.931-1.932c0 0 0.001 0 0.001 0 1.067 0 1.932 0.865 1.932 1.932s-0.864 1.931-1.931 1.932zM25.411 6.134c-6.554 3.308-10.706 13.139-10.706 13.139l-2.566-4.856-5.294 3.133c2.244 0.785 5.454 3.292 8.179 6.581 1.924-3.446 7.859-10.496 10.746-11.123-1.113-2.488-0.49-4.513-0.324-6.84z"></path>
<path fill="#d8d8d8" d="M20.557 29.319c-1.43 0.49-2.963 0.761-4.557 0.761-7.764 0-14.080-6.316-14.080-14.080s6.316-14.080 14.080-14.080 14.080 6.316 14.080 14.080c0 1.149-0.142 2.266-0.403 3.336 0.622 0.386 1.154 0.842 1.61 1.366 0.465-1.48 0.713-3.062 0.713-4.701 0-8.837-7.163-16-16-16s-16 7.163-16 16c0 8.836 7.164 16 16 16 2.15 0 4.199-0.427 6.072-1.196-0.584-0.422-1.083-0.912-1.501-1.467z"></path>
</svg>
