<?xml version="1.0" encoding="utf-8"?>
<!-- Generated by IcoMoon.io -->
<!DOCTYPE svg PUBLIC "-//W3C//DTD SVG 1.1//EN" "http://www.w3.org/Graphics/SVG/1.1/DTD/svg11.dtd">
<svg version="1.1" xmlns="http://www.w3.org/2000/svg" xmlns:xlink="http://www.w3.org/1999/xlink" width="32" height="32" viewBox="0 0 32 32">
<path fill="#d8d8d8" d="M0.96 5.412h26.88c0.53 0 0.96-0.43 0.96-0.96s-0.43-0.96-0.96-0.96h-26.88c-0.53 0-0.96 0.43-0.96 0.96s0.43 0.96 0.96 0.96zM0.96 12.452c-0.53 0-0.96 0.43-0.96 0.96s0.43 0.96 0.96 0.96h18.378c1.149-0.948 2.556-1.624 4.101-1.911l-22.48-0.009zM15.943 21.412h-14.983c-0.53 0-0.96 0.43-0.96 0.96s0.43 0.96 0.96 0.96h15.145c-0.107-0.528-0.168-1.136-0.17-1.759 0-0.055 0.008-0.107 0.008-0.161zM25.128 14.637c-3.796 0-6.874 3.105-6.874 6.935s3.078 6.935 6.874 6.935 6.872-3.105 6.872-6.935-3.078-6.935-6.872-6.935zM28.4 23.197h-3.2c-0.53 0-0.96-0.43-0.96-0.96v-3.84c0-0.53 0.43-0.96 0.96-0.96s0.96 0.43 0.96 0.96v2.88h2.24c0.53 0 0.96 0.43 0.96 0.96s-0.43 0.96-0.96 0.96z"></path>
</svg>
