<?xml version="1.0" encoding="utf-8"?>
<!-- Generated by IcoMoon.io -->
<!DOCTYPE svg PUBLIC "-//W3C//DTD SVG 1.1//EN" "http://www.w3.org/Graphics/SVG/1.1/DTD/svg11.dtd">
<svg version="1.1" xmlns="http://www.w3.org/2000/svg" xmlns:xlink="http://www.w3.org/1999/xlink" width="32" height="32" viewBox="0 0 32 32">
<path fill="#d8d8d8" d="M10.631 12.177l-1.192-1.132c-0.156-0.145-0.366-0.234-0.597-0.234s-0.441 0.089-0.598 0.234c-0.151 0.141-0.245 0.342-0.245 0.566s0.094 0.424 0.246 0.566l1.194 1.132c0.33 0.312 0.862 0.312 1.192 0s0.33-0.819 0-1.132z"></path>
<path fill="#d8d8d8" d="M16 1.92c7.764 0 14.080 6.316 14.080 14.080s-6.316 14.080-14.080 14.080-14.080-6.316-14.080-14.080 6.316-14.080 14.080-14.080zM16 0c-8.838 0-16 7.162-16 16s7.162 16 16 16 16-7.162 16-16-7.162-16-16-16z"></path>
<path fill="#d8d8d8" d="M11.867 17.599c0.393-1.826 2.092-3.199 4.133-3.199s3.743 1.373 4.133 3.199h1.688c-0.417-2.706-2.852-4.799-5.821-4.799-2.966 0-5.404 2.093-5.818 4.799h1.685zM16 11.2c0.467 0 0.844-0.359 0.844-0.8v-1.6c0-0.441-0.376-0.8-0.844-0.8s-0.844 0.359-0.844 0.8v1.601c0 0.44 0.377 0.799 0.844 0.799zM23.752 11.046c-0.156-0.145-0.365-0.235-0.596-0.235s-0.44 0.089-0.596 0.235l-1.192 1.132c-0.153 0.141-0.248 0.342-0.248 0.566s0.095 0.425 0.247 0.566c0.156 0.145 0.366 0.234 0.596 0.234s0.44-0.089 0.597-0.235l1.191-1.132c0.153-0.141 0.248-0.342 0.248-0.566s-0.095-0.425-0.247-0.566zM21.061 19.201h-10.122c-0.466 0-0.844 0.358-0.844 0.8 0 0.44 0.378 0.799 0.844 0.799h10.122c0.467 0 0.844-0.359 0.844-0.799 0.001-0.442-0.377-0.8-0.844-0.8zM19.373 22.4h-6.747c-0.467 0-0.843 0.358-0.843 0.799s0.377 0.8 0.843 0.8h6.748c0.467 0 0.845-0.358 0.845-0.8s-0.378-0.799-0.845-0.799z"></path>
</svg>
