<?xml version="1.0" encoding="utf-8"?>
<!-- Generated by IcoMoon.io -->
<!DOCTYPE svg PUBLIC "-//W3C//DTD SVG 1.1//EN" "http://www.w3.org/Graphics/SVG/1.1/DTD/svg11.dtd">
<svg version="1.1" xmlns="http://www.w3.org/2000/svg" xmlns:xlink="http://www.w3.org/1999/xlink" width="33" height="32" viewBox="0 0 33 32">
<path fill="#d8d8d8" d="M14.545 24.242v-0.97c0.001-2.142 1.737-3.878 3.879-3.879h1.939v-1.873c-0.788-0.31-1.6-0.573-2.446-0.743 3.173-1.354 5.357-4.447 5.357-8.050 0-4.82-3.907-8.727-8.727-8.727-0.001 0-0.001 0-0.002 0-4.82 0-8.727 3.907-8.727 8.727 0 3.768 2.393 6.969 5.739 8.191-6.624 1.62-11.557 7.75-11.557 15.082h20.364v-3.879h-1.939c-2.142-0.001-3.878-1.737-3.879-3.879zM31.030 21.333h-3.879v-3.879c0-0 0-0.001 0-0.001 0-1.070-0.868-1.938-1.938-1.938-0 0-0.001 0-0.001 0h-0.97c-0 0-0.001 0-0.001 0-1.070 0-1.938 0.868-1.938 1.938 0 0 0 0.001 0 0.001v3.879h-3.879c-0 0-0.001 0-0.001 0-1.070 0-1.938 0.868-1.938 1.938 0 0 0 0.001 0 0.001v0.97c0 1.072 0.868 1.939 1.939 1.939h3.879v3.879c0 1.072 0.868 1.939 1.939 1.939h0.97c0 0 0.001 0 0.001 0 1.070 0 1.938-0.868 1.938-1.938 0-0 0-0.001 0-0.001v-3.879h3.879c0 0 0.001 0 0.001 0 1.070 0 1.938-0.868 1.938-1.938 0-0 0-0.001 0-0.001v-0.97c0-0 0-0.001 0-0.001 0-1.070-0.868-1.938-1.938-1.938-0 0-0.001 0-0.001 0z"></path>
</svg>
