<?xml version="1.0" encoding="utf-8"?>
<!-- Generated by IcoMoon.io -->
<!DOCTYPE svg PUBLIC "-//W3C//DTD SVG 1.1//EN" "http://www.w3.org/Graphics/SVG/1.1/DTD/svg11.dtd">
<svg version="1.1" xmlns="http://www.w3.org/2000/svg" xmlns:xlink="http://www.w3.org/1999/xlink" width="34" height="32" viewBox="0 0 34 32">
<path fill="#d8d8d8" d="M0 15.999c0-1.164 0.775-2.425 1.843-2.812l0.388-0.193c0.97-0.388 1.746 0.097 1.746 1.261v14.255c0 1.066-0.775 1.552-1.648 1.164l-0.388-0.193c-0.97-0.484-1.746-1.746-1.746-2.909v-10.571l-0.195-0.001zM5.818 14.254c0-1.066 0.873-2.23 1.843-2.521 0 0 2.23-0.484 4.848-2.812s4.752-8.921 6.885-8.921c2.23 0 4.266 1.648 4.266 3.685 0 2.425 0.193 5.625-3.782 7.273 0 0 4.461-0.388 8.146-0.388s5.916 1.357 5.916 3.685c0 2.327-0.679 7.757-2.23 10.958-1.648 3.298-5.818 6.789-10.958 6.789-5.043 0-12.994-0.775-12.994-0.775-1.066-0.097-1.939-1.066-1.939-2.134v-14.837h-0.001z"></path>
</svg>
