<?xml version="1.0" encoding="utf-8"?>
<!-- Generated by IcoMoon.io -->
<!DOCTYPE svg PUBLIC "-//W3C//DTD SVG 1.1//EN" "http://www.w3.org/Graphics/SVG/1.1/DTD/svg11.dtd">
<svg version="1.1" xmlns="http://www.w3.org/2000/svg" xmlns:xlink="http://www.w3.org/1999/xlink" width="32" height="32" viewBox="0 0 32 32">
<path fill="#d8d8d8" d="M16 4c-5.867 0-10.667 4.8-10.667 10.667 0 2.8 1.133 5.267 2.867 7.133 1 1.067 6.533 7.533 6.533 7.533 0.467 0.467 0.867 0.667 1.267 0.667s0.733-0.2 1.2-0.667c0 0 5.6-6.467 6.533-7.533 1.8-1.867 2.933-4.333 2.933-7.133 0-5.867-4.8-10.667-10.667-10.667zM22.333 20.533c-0.867 1-5.267 6.067-6.333 7.333-1.067-1.267-5.467-6.333-6.333-7.333-1.533-1.667-2.333-3.667-2.333-5.867 0-4.8 3.867-8.667 8.667-8.667s8.667 3.867 8.667 8.667c0 2.2-0.8 4.2-2.333 5.867zM16 9.333c-2.933 0-5.333 2.4-5.333 5.333s2.4 5.333 5.333 5.333 5.333-2.4 5.333-5.333-2.4-5.333-5.333-5.333zM16 18c-1.867 0-3.333-1.467-3.333-3.333s1.467-3.333 3.333-3.333 3.333 1.467 3.333 3.333c0 0.010 0 0.021 0 0.033 0 1.823-1.477 3.3-3.3 3.3-0.012 0-0.023-0-0.035-0z"></path>
</svg>
