<?xml version="1.0" encoding="utf-8"?>
<!-- Generated by IcoMoon.io -->
<!DOCTYPE svg PUBLIC "-//W3C//DTD SVG 1.1//EN" "http://www.w3.org/Graphics/SVG/1.1/DTD/svg11.dtd">
<svg version="1.1" xmlns="http://www.w3.org/2000/svg" xmlns:xlink="http://www.w3.org/1999/xlink" width="32" height="32" viewBox="0 0 32 32">
<path fill="#d8d8d8" d="M30.728 2.664h-18.768c-0.703 0-1.272 0.57-1.272 1.272v4.080h-5.44c-0.145 0.001-0.281 0.034-0.404 0.092-0.227 0.067-0.418 0.217-0.539 0.414l-4.305 7.135v7.36c0 0.53 0.429 0.96 0.96 0.96h2.051c-0.166 0.416-0.263 0.897-0.264 1.402 0.035 2.158 1.793 3.893 3.955 3.893s3.92-1.736 3.955-3.89c0-0.498-0.096-0.969-0.264-1.405h9.951c-0.166 0.416-0.263 0.897-0.264 1.402 0.035 2.158 1.793 3.893 3.956 3.893s3.92-1.736 3.955-3.89c0-0.498-0.097-0.969-0.265-1.405h3.001c0.703 0 1.271-0.572 1.271-1.272v-18.769c-0.001-0.702-0.571-1.271-1.273-1.272zM6.702 27.416c-1.124-0.002-2.035-0.914-2.035-2.039 0-0.14 0.014-0.278 0.041-0.41 0.018-0.091 0.049-0.191 0.086-0.288 0.020-0.056 0.047-0.11 0.073-0.164 0.016-0.036 0.033-0.070 0.051-0.105 0.051-0.090 0.101-0.166 0.155-0.239 0.051-0.068 0.107-0.133 0.167-0.195l2.922 0c0.352 0.363 0.57 0.858 0.574 1.403 0 0.001 0 0.001 0 0.002 0 1.123-0.91 2.034-2.033 2.035zM10.688 22.058h-8.768v-5.121h5.1c0.53 0 0.96-0.43 0.96-0.96s-0.43-0.96-0.96-0.96h-4.39l3.064-5.080h4.995v12.122zM26.071 25.38c-0.001 1.124-0.911 2.034-2.035 2.036-1.124-0.001-2.035-0.912-2.036-2.036 0-0.545 0.218-1.039 0.57-1.402h2.931c0.353 0.364 0.57 0.858 0.57 1.402zM30.080 22.058h-17.472v-17.473h17.472v17.473z"></path>
</svg>
