<?xml version="1.0" encoding="utf-8"?>
<!-- Generated by IcoMoon.io -->
<!DOCTYPE svg PUBLIC "-//W3C//DTD SVG 1.1//EN" "http://www.w3.org/Graphics/SVG/1.1/DTD/svg11.dtd">
<svg version="1.1" xmlns="http://www.w3.org/2000/svg" xmlns:xlink="http://www.w3.org/1999/xlink" width="32" height="32" viewBox="0 0 32 32">
<path fill="#d8d8d8" d="M24.932 20.586c-0 0-0.001 0-0.001 0-3.151 0-5.705 2.554-5.705 5.705 0 0.001 0 0.001 0 0.002 0 3.152 2.555 5.707 5.707 5.707s5.707-2.555 5.707-5.707c0-3.152-2.555-5.707-5.707-5.707-0 0-0.001 0-0.001 0zM27.779 25.751l-3.665 3.267-2.026-1.814v-2.186l2.026 1.813 3.665-3.267v2.186z"></path>
<path fill="#d8d8d8" d="M5.2 28.737c-1.060-0.001-1.919-0.86-1.92-1.92v-22.977c0-1.059 0.862-1.92 1.92-1.92h18.957c1.059 0 1.92 0.861 1.92 1.92v15.162c0.718 0.114 1.364 0.313 1.966 0.592l-0.046-15.755c0-2.12-1.72-3.84-3.84-3.84h-18.957c-2.12 0-3.84 1.72-3.84 3.84v22.977c0 2.12 1.72 3.84 3.84 3.84h13.784c-0.411-0.552-0.754-1.187-0.998-1.869l-12.787-0.051z"></path>
<path fill="#d8d8d8" d="M19.541 5.198l-4.917 8.585c-0.532-1.211-2.429-4.071-4.9-8.585h-2.35l5.355 9.087h-4.534v1.843h5.281v2.931h-5.281v1.705h5.281v4.358h2.127v-4.358h5.1v-1.705h-5.133v-2.931h5.133v-1.843h-4.207l5.308-9.087h-2.262z"></path>
</svg>
