<?xml version="1.0" encoding="utf-8"?>
<!-- Generated by IcoMoon.io -->
<!DOCTYPE svg PUBLIC "-//W3C//DTD SVG 1.1//EN" "http://www.w3.org/Graphics/SVG/1.1/DTD/svg11.dtd">
<svg version="1.1" xmlns="http://www.w3.org/2000/svg" xmlns:xlink="http://www.w3.org/1999/xlink" width="32" height="32" viewBox="0 0 32 32">
<path fill="#d8d8d8" d="M21.813 24.398c-1.607 1.157-3.615 1.85-5.784 1.85-0.053 0-0.105-0-0.158-0.001-0.29-0.004-0.578-0.019-0.863-0.045-0.069-0.008-0.182-0.026-0.294-0.040-0.276-0.035-0.495-0.070-0.711-0.111-0.060-0.013-0.187-0.048-0.314-0.078-0.275-0.061-0.48-0.116-0.681-0.176-0.027-0.012-0.12-0.046-0.216-0.080-0.301-0.099-0.529-0.185-0.752-0.279 0.014 0.003-0.035-0.021-0.085-0.044-0.335-0.146-0.6-0.279-0.857-0.421-0.829-0.469-1.587-1.049-2.253-1.722l-0.034-0.036c-0.206-0.209-0.403-0.429-0.59-0.657-0.054-0.067-0.093-0.121-0.133-0.171-1.384-1.737-2.221-3.963-2.221-6.385 0-0.003 0-0.006 0-0.009l2.666 0-4.266-6.477-4.267 6.478h2.667c0 2.841 0.875 5.474 2.36 7.65 0.018 0.030 0.031 0.063 0.051 0.093 0.154 0.223 0.325 0.428 0.49 0.639 0.062 0.080 0.119 0.162 0.184 0.24 0.243 0.299 0.501 0.579 0.767 0.854l0.073 0.079c0.892 0.903 1.9 1.665 2.997 2.273 0.028 0.018 0.057 0.035 0.088 0.051 0.315 0.172 0.641 0.328 0.97 0.475 0.082 0.035 0.162 0.075 0.246 0.111 0.281 0.118 0.57 0.221 0.861 0.319 0.138 0.048 0.274 0.097 0.414 0.14 0.254 0.076 0.515 0.141 0.777 0.203 0.174 0.041 0.347 0.085 0.523 0.119 0.074 0.016 0.144 0.038 0.216 0.050 0.247 0.045 0.496 0.069 0.743 0.1 0.090 0.011 0.178 0.026 0.267 0.035 0.445 0.045 0.889 0.074 1.332 0.074 2.71 0 5.354-0.84 7.623-2.448 0.415-0.3 0.682-0.783 0.682-1.328 0-0.347-0.108-0.669-0.293-0.933-0.287-0.414-0.765-0.685-1.307-0.685-0.344 0-0.663 0.11-0.924 0.296zM29.334 15.995c0-0.004 0-0.008 0-0.013 0-2.845-0.878-5.485-2.379-7.663 0.009 0.009-0.006-0.028-0.031-0.063-0.184-0.266-0.384-0.513-0.584-0.762-0.023-0.029-0.045-0.062-0.069-0.092-1.321-1.618-2.988-2.903-4.893-3.751-0.137-0.057-0.189-0.083-0.243-0.106-0.205-0.091-0.515-0.209-0.831-0.317-0.221-0.069-0.334-0.111-0.45-0.146-0.185-0.060-0.466-0.136-0.75-0.202-0.243-0.054-0.4-0.094-0.558-0.125-0.078-0.015-0.151-0.039-0.229-0.053-0.211-0.036-0.422-0.053-0.633-0.081-0.146-0.019-0.289-0.041-0.437-0.057-0.308-0.029-0.676-0.048-1.047-0.054-0.075-0-0.137-0.010-0.201-0.010-0.012 0-0.022 0.003-0.034 0.004-2.707 0.003-5.346 0.83-7.611 2.438-0.725 0.512-0.9 1.521-0.394 2.255s1.505 0.911 2.229 0.397c1.607-1.157 3.615-1.851 5.786-1.851 0.035 0 0.070 0 0.105 0.001 0.297 0.002 0.593 0.018 0.886 0.045l0.27 0.035c0.24 0.030 0.479 0.064 0.715 0.111 0.104 0.021 0.207 0.047 0.308 0.071 0.231 0.053 0.462 0.109 0.688 0.178 0.071 0.022 0.142 0.049 0.213 0.072 0.36 0.119 0.637 0.226 0.908 0.344 1.453 0.649 2.732 1.633 3.733 2.853l0.033 0.043c1.434 1.754 2.303 4.018 2.303 6.486 0 0.004 0 0.008 0 0.012l-2.668-0.001 4.268 6.479 4.264-6.476h-2.666z"></path>
</svg>
