<?xml version="1.0" encoding="utf-8"?>
<!-- Generated by IcoMoon.io -->
<!DOCTYPE svg PUBLIC "-//W3C//DTD SVG 1.1//EN" "http://www.w3.org/Graphics/SVG/1.1/DTD/svg11.dtd">
<svg version="1.1" xmlns="http://www.w3.org/2000/svg" xmlns:xlink="http://www.w3.org/1999/xlink" width="32" height="32" viewBox="0 0 32 32">
<path fill="#d8d8d8" d="M31.134 11.634l-9.827-1.43-4.393-8.907c0.067-0.131 0.105-0.287 0.105-0.451 0-0.561-0.455-1.016-1.016-1.016s-1.016 0.455-1.016 1.016c0 0.164 0.039 0.319 0.108 0.457l-4.399 8.901-9.83 1.43c-0.494 0.072-0.869 0.493-0.869 1.002 0 0.285 0.118 0.542 0.307 0.726l7.111 6.931-1.676 9.791c-0.062 0.366 0.079 0.756 0.403 0.989 0.164 0.122 0.37 0.196 0.594 0.196 0.173 0 0.336-0.044 0.478-0.122l8.786-4.618 8.789 4.621c0.137 0.074 0.3 0.117 0.472 0.117 0.224 0 0.431-0.073 0.598-0.196 0.318-0.23 0.464-0.621 0.399-0.987l-1.678-9.791 7.111-6.931c0.267-0.261 0.379-0.66 0.257-1.041-0.119-0.364-0.431-0.632-0.812-0.686z"></path>
</svg>
