<?xml version="1.0" encoding="utf-8"?>
<!-- Generated by IcoMoon.io -->
<!DOCTYPE svg PUBLIC "-//W3C//DTD SVG 1.1//EN" "http://www.w3.org/Graphics/SVG/1.1/DTD/svg11.dtd">
<svg version="1.1" xmlns="http://www.w3.org/2000/svg" xmlns:xlink="http://www.w3.org/1999/xlink" width="32" height="32" viewBox="0 0 32 32">
<path fill="#d8d8d8" d="M14.118 25.756c-0.007 0-0.014 0-0.022 0-0.751 0-1.44-0.265-1.98-0.706l-7.771-6.388c-0.38-0.314-0.621-0.786-0.621-1.314 0-0.94 0.762-1.702 1.702-1.702 0.412 0 0.789 0.146 1.084 0.39l7.664 6.299c0.089-0.041 0.164-0.1 0.221-0.174l12.573-15.296c0.314-0.372 0.781-0.607 1.303-0.607 0.94 0 1.702 0.762 1.702 1.702 0 0.405-0.142 0.778-0.378 1.070l-12.57 15.29c-0.556 0.684-1.327 1.173-2.21 1.363-0.227 0.047-0.458 0.071-0.695 0.072z"></path>
</svg>
