<?xml version="1.0" encoding="utf-8"?>
<!-- Generated by IcoMoon.io -->
<!DOCTYPE svg PUBLIC "-//W3C//DTD SVG 1.1//EN" "http://www.w3.org/Graphics/SVG/1.1/DTD/svg11.dtd">
<svg version="1.1" xmlns="http://www.w3.org/2000/svg" xmlns:xlink="http://www.w3.org/1999/xlink" width="32" height="32" viewBox="0 0 32 32">
<path fill="#d8d8d8" d="M16.932 23.201c0 0.72-0.584 1.304-1.304 1.304s-1.304-0.584-1.304-1.304c0-0.72 0.584-1.304 1.304-1.304s1.304 0.584 1.304 1.304zM17.844 7.668c0-1.222-0.99-2.212-2.212-2.212s-2.212 0.99-2.212 2.212c0 0.028 0.007 0.055 0.008 0.083h-0.008l0.839 11.48-0.001 0.007c-0 0.006-0 0.014-0 0.021 0 0.756 0.613 1.368 1.368 1.368 0.748 0 1.356-0.601 1.368-1.346l0.008-0.001 0.834-11.498h-0.003c0.002-0.038 0.012-0.075 0.012-0.114z"></path>
</svg>
