<?xml version="1.0" encoding="utf-8"?>
<!-- Generator: Adobe Illustrator 14.0.0, SVG Export Plug-In . SVG Version: 6.00 Build 43363)  -->
<!DOCTYPE svg PUBLIC "-//W3C//DTD SVG 1.1//EN" "http://www.w3.org/Graphics/SVG/1.1/DTD/svg11.dtd">
<svg version="1.1" id="图层_1" xmlns="http://www.w3.org/2000/svg" xmlns:xlink="http://www.w3.org/1999/xlink" x="0px" y="0px"
	 width="32px" height="32px" viewBox="0 0 32 32" enable-background="new 0 0 32 32" xml:space="preserve">
<path fill-rule="evenodd" clip-rule="evenodd" fill="#888888" d="M31.369,27.999H0.632C0.283,27.999,0,27.688,0,27.301V4.699
	c0-0.385,0.282-0.697,0.632-0.697h30.736C31.717,4.001,32,4.314,32,4.699v22.603C32,27.688,31.717,27.999,31.369,27.999z
	 M30.18,26.606l-9.298-13.322l-4.86,3.592l-4.939-3.639L1.766,26.606H30.18z M1.263,25.04L10.03,12.46L1.263,6.002V25.04z
	 M2.714,5.395l13.288,9.792l13.284-9.792H2.714z M21.936,12.506l8.801,12.611V6.004L21.936,12.506z"/>
</svg>
