<?xml version="1.0" standalone="no"?>
<!DOCTYPE svg PUBLIC "-//W3C//DTD SVG 1.1//EN" "http://www.w3.org/Graphics/SVG/1.1/DTD/svg11.dtd" >
<svg xmlns="http://www.w3.org/2000/svg">
<metadata>Generated by IcoMoon</metadata>
<defs>
<font id="icomoon" horiz-adv-x="1024">
<font-face units-per-em="1024" ascent="960" descent="-64" />
<missing-glyph horiz-adv-x="1024" />
<glyph unicode="&#x20;" horiz-adv-x="512" d="" />
<glyph unicode="&#xe900;" d="M881.254 599.224c-0.246 8.724-0.86 17.080-1.72 25.19-17.285 187.884-175.104 335.094-367.534 335.094-175.841 0-322.683-123.044-359.916-287.58-0.205-0.819-0.41-1.638-0.614-2.458-0.492-2.253-1.065-4.547-1.556-6.84-4.506-19.005-7.168-39.895-7.168-63.406 0-1.679 0.123-3.4 0.205-5.079-0.041-1.311-0.205-2.54-0.205-3.85 0-46.244 8.847-90.276 24.33-131.031 82.33-256.246 344.924-522.772 344.924-522.772s275.292 283.402 350.413 537.887c9.38 28.385 15.278 58.286 17.49 89.252 0.655 7.455 0.942 14.787 1.106 22.159 0.041 1.516 0.246 2.949 0.246 4.506 0 0.737-0.123 1.475-0.123 2.253 0 2.171 0.164 4.506 0.123 6.676z" />
<glyph unicode="&#xe901;" d="M756.531 573.747c0-135.254-109.645-244.9-244.9-244.9s-244.9 109.645-244.9 244.9c0 135.254 109.645 244.9 244.9 244.9s244.9-109.645 244.9-244.9z" />
<glyph unicode="&#xe902;" d="M621.486 573.747c0-60.671-49.184-109.855-109.855-109.855s-109.855 49.184-109.855 109.855c0 60.671 49.184 109.855 109.855 109.855s109.855-49.184 109.855-109.855z" />
<glyph unicode="&#xe903;" glyph-name="alarm" d="M977.042 125.645c-13.488-28.526-81.949-28.526-98.684-28.526h-190.405c-0.059-80.925-94.91-146.52-175.835-146.52s-175.777 65.595-175.835 146.52h-186.748c-26.331 0-87.479 3.248-100.235 28.643-14.482 28.789 6.963 86.923 34.143 123.436 30.193 40.638 77.853 92.979 77.853 148.392v208.691c0 154.595 145.174 309.628 350.267 309.628 200.090 0 351.144-155.034 351.144-309.628v-208.662c0-56.349 43.915-111.587 75.981-150.616 30.164-36.718 51.961-92.482 38.356-121.359zM512.059 37.493c49.152 0 88.971 39.76 89.059 88.912h-178.117c0.088-49.152 39.907-88.912 89.059-88.912zM864.227 209.847c-37.683 45.787-89.293 110.416-89.293 187.743v208.691c0 122.353-147.895 221.857-263.373 221.857s-262.466-99.533-262.466-221.857v-208.662c0-74.811-55.94-138.299-89.439-183.325-6.758-9.099-15.097-20.275-20.743-29.082 2.926-0.176 6.437-0.293 10.62-0.293h728.795c2.077 0 4.008 0 5.734 0.059-5.881 7.87-13.488 17.145-19.836 24.869z" />
<glyph unicode="&#xe904;" glyph-name="follow" d="M717.503 482.475h-155.296v155.027c0 27.885-22.601 50.475-50.475 50.475s-50.475-22.601-50.475-50.475v-154.991h-154.752c-27.885-0.036-50.475-22.637-50.475-50.507s22.601-50.475 50.475-50.475h154.72v-154.991c0.036-27.917 22.637-50.507 50.507-50.507s50.475 22.601 50.475 50.475v155.027h155.264c27.917 0 50.507 22.601 50.507 50.475s-22.601 50.475-50.475 50.475z" />
<glyph unicode="&#xe905;" glyph-name="followed" d="M741.438 557.535c-19.721 19.721-51.647 19.721-71.358 0l-210.204-210.137-103.086 103.086c-19.721 19.721-51.647 19.721-71.358 0s-19.721-51.647 0-71.358l138.594-138.594c9.922-9.922 22.885-14.843 35.891-14.8 12.961-0.033 25.961 4.878 35.891 14.8l245.675 245.646c19.678 19.721 19.678 51.647-0.033 71.358z" />
<glyph unicode="&#xe906;" glyph-name="comment" d="M334.356 571.044c-36.7 0-66.478-30.106-66.478-67.297 0-37.11 29.778-67.297 66.478-67.297 36.741 0 66.519 30.147 66.519 67.297 0 37.192-29.778 67.297-66.519 67.297zM888.381 885.002h-753.5c-73.4 0-132.956-60.252-132.956-134.554v-493.404c0-74.301 48.865-146.801 122.348-146.801h244.695l139.919-122.307 145.572 122.307h244.654c73.4 0 122.307 72.499 122.307 146.801v493.404c0 74.342-59.597 134.554-133.038 134.554zM939.827 354.898c0-63.119-61.645-163.021-122.348-163.021h-203.899l-104.202-69.345-99.697 69.345h-203.858c-60.662 0-122.348 59.105-122.348 122.225v367.043c0 63.201 61.686 122.348 122.348 122.348h611.656c60.703 0 122.348-59.146 122.348-122.348v-326.246zM688.906 571.044c-36.7 0-66.478-30.106-66.478-67.297 0-37.11 29.778-67.297 66.478-67.297s66.56 30.147 66.56 67.297c0 37.192-29.819 67.297-66.56 67.297z" />
<glyph unicode="&#xe907;" glyph-name="enter" d="M272.056 743.772l319.939-295.772-319.939-295.772 79.954-73.892 399.892 369.664-399.892 369.664-79.954-73.892z" />
<glyph unicode="&#xe908;" glyph-name="edit" horiz-adv-x="1033" d="M994.607 899.894c-16.237 13.938-40.494 11.786-54.139-4.842l-510.484-621.208c-13.645-16.628-11.493-41.375 4.744-55.313 16.286-13.889 40.494-11.738 54.139 4.891l510.484 621.208c13.596 16.579 11.493 41.326-4.744 55.264zM898.947 380.020v52.721c0 14.476-10.221 25.92-24.355 25.92h-25.578c-14.183 0-27.094-11.444-27.094-25.92l0.049-19.465 1.369-340.045c0-14.476-11.444-26.165-25.578-26.165h-670.994c-14.183 0-25.627 11.689-25.627 26.165v754.526c0 14.427 11.444 26.165 25.627 26.165h616.611c14.134 0 25.627 11.689 25.627 26.165v26.165c0 14.427-11.493 26.165-25.627 26.165h-642.237c-42.451 0-76.832-35.115-76.832-78.446v-806.905c0-43.331 34.43-78.446 76.832-78.446h722.199c42.402 0 76.832 35.164 76.832 78.446l-1.223 332.905c0 0 0 0 0 0.049z" />
<glyph unicode="&#xe909;" glyph-name="like" d="M795.689 826.061c-46.162 0-88.883-14.828-123.822-39.813l-168.428-159.621-87.491 88.228c-52.634 55.624-106.988 111.206-187.679 111.206-118.702 0-214.917-97.034-214.917-216.76 0-81.388 58.204-142.828 110.264-189.317l388.342-391.66 388.383 391.66c49.603 47.35 110.223 107.93 110.223 189.317 0.041 119.685-96.215 216.76-214.876 216.76zM864.666 502.641l-352.707-354.673-51.569 52.019-301.056 302.653c-31.662 25.108-66.15 64.799-66.15 113.582 0 71.844 57.754 130.089 128.942 130.089 48.415 0 79.626-34.652 112.599-66.724l172.155-172.605 220.733 215.45c21.053 15.032 46.612 23.88 74.301 23.88 71.188 0 128.901-58.204 128.901-130.089 0.041-48.783-32.481-86.221-66.15-113.582z" />
<glyph unicode="&#xe90a;" glyph-name="like-active" d="M802.488 806.605c-47.309 0-91.177-15.196-127.058-40.837l-172.728-163.676-89.743 90.44c-55.788 58.573-109.65 114.033-192.43 114.033-121.692 0-220.365-99.533-220.365-222.331 0-83.395 59.884-143.196 113.050-194.068l398.295-401.654 88.187 88.842 310.108 312.812c51.896 53.289 113.050 110.674 113.050 194.068-0.041 122.88-98.714 222.372-220.365 222.372z" />
<glyph unicode="&#xe90b;" glyph-name="m-office" d="M960.333 107.853h-78.387v172.595c0 20.838-12.109 37.658-27.059 37.658h-79.309c-14.925 0-27.059-16.794-27.059-37.658v-172.595h-473.088v172.595c0 20.838-12.134 37.658-27.085 37.658h-79.309c-14.925 0-27.034-16.794-27.034-37.658v-172.595h-78.413c-20.787 0-37.658-12.109-37.658-27.059v-79.309c0-14.95 16.87-27.008 37.658-27.008h896.691c20.813 0 37.709 12.058 37.709 27.008v79.309c0 14.95-16.896 27.059-37.658 27.059zM1024 867.61c0 29.798-24.090 53.862-53.914 53.862h-916.224c-29.722 0.026-53.862-24.064-53.862-53.862 0 0 0-348.058 0-350.208 0-70.682 57.344-127.974 128-127.974 70.733 0 128.051 57.293 128.051 127.974 0-70.682 57.242-127.974 127.949-127.974s128 57.293 128 127.974c0-70.682 57.344-127.974 128.051-127.974s127.949 57.318 127.949 127.974c0-70.682 57.344-127.974 128-127.974 70.758 0 128 57.293 128 127.974 0 2.15-0.205 4.25-0.307 6.349 0.051 0 0.307 343.859 0.307 343.859z" />
<glyph unicode="&#xe90c;" glyph-name="menu" d="M81.060 643.133h861.839c44.073 0 79.79 22.897 79.79 51.077s-35.717 51.077-79.79 51.077h-861.839c-44.073 0-79.79-22.897-79.79-51.077s35.717-51.077 79.79-51.077zM942.94 472.904h-861.88c-44.073 0-79.79-22.897-79.79-51.077 0-28.221 35.717-51.077 79.79-51.077h861.839c44.073 0 79.79 22.856 79.79 51.077 0.041 28.18-35.676 51.077-79.749 51.077zM942.94 200.52h-861.88c-44.073 0-79.79-22.897-79.79-51.077s35.717-51.077 79.79-51.077h861.839c44.073 0 79.79 22.897 79.79 51.077s-35.676 51.077-79.749 51.077z" />
<glyph unicode="&#xe90d;" glyph-name="u-best" d="M785.203 908.774l-0.102-302.797h-68.813l0.128 302.797h68.787zM553.242 908.774l-0.128-145.587h-68.813l0.102 145.587h68.838zM319.283 908.774l-0.102-302.797h-68.864l0.077 302.797h68.89zM511.846 561.587l84.736-154.931c7.757-14.157 21.734-23.859 37.734-26.138l175.258-24.96-123.52-120.806c-12.262-12.006-17.69-29.338-14.49-46.157l31.283-164.941-169.318 76.902c-6.733 3.046-13.978 4.608-21.171 4.608-7.245 0-14.49-1.562-21.222-4.608l-169.216-77.158 31.053 164.941c3.149 16.845-2.304 34.176-14.566 46.131l-123.725 120.627 175.181 25.216c15.974 2.304 29.926 12.006 37.683 26.163l84.301 155.11zM807.859 959.974h-114.253c-15.744 0-28.493-18.15-28.493-40.499v-324.198c0-22.4 12.749-40.499 28.493-40.499h114.253c15.744 0 28.544 18.099 28.544 40.499v324.198c0 22.349-12.8 40.499-28.544 40.499v0zM575.898 959.974h-114.253c-15.744 0-28.544-18.15-28.544-40.499v-166.938c0-22.4 12.8-40.55 28.544-40.55h114.253c15.744 0 28.544 18.15 28.544 40.55v166.938c0 22.349-12.8 40.499-28.544 40.499v0zM341.888 959.974h-114.227c-15.744 0-28.544-18.15-28.544-40.499v-324.198c0-22.4 12.8-40.499 28.544-40.499h114.253c15.77 0 28.57 18.099 28.57 40.499v324.198c0 22.349-12.8 40.499-28.595 40.499v0zM511.795 668.467l-129.408-237.389-277.99-40.013 198.093-193.152-49.306-261.888 259.021 117.99 259.2-117.709-49.613 261.862 197.811 193.434-278.093 39.654-129.715 237.21z" />
<glyph unicode="&#xe90e;" glyph-name="m-best" d="M461.645 711.987h114.253c15.744 0 28.544 18.15 28.544 40.55v166.938c0 22.349-12.8 40.499-28.544 40.499h-114.253c-15.744 0-28.544-18.15-28.544-40.499v-166.938c0-22.4 12.8-40.55 28.544-40.55zM693.606 554.778h114.253c15.744 0 28.544 18.099 28.544 40.499v324.198c0 22.349-12.8 40.499-28.544 40.499h-114.253c-15.744 0-28.493-18.15-28.493-40.499v-324.198c-0.026-22.4 12.749-40.499 28.493-40.499zM227.661 554.778h114.253c15.77 0 28.57 18.099 28.57 40.499v324.198c0 22.349-12.8 40.499-28.57 40.499h-114.253c-15.744 0-28.544-18.15-28.544-40.499v-324.198c-0.026-22.4 12.774-40.499 28.544-40.499zM919.603 391.629l-278.093 39.654-129.69 237.21-129.382-237.389-278.016-40.013 198.093-193.152-49.306-261.888 259.046 117.965 259.2-117.709-49.638 261.862 197.786 193.459z" />
<glyph unicode="&#xe90f;" glyph-name="eval" d="M999.483 484.367c-55.764 66.882-233.531 257.317-457.699 274.286-9.918 1.083-19.953 1.668-30.135 1.668-0.263 0-0.527-0.029-0.761-0.029s-0.497 0.029-0.761 0.029c-234.057 0-425.604-200.353-484.557-269.283-13.078-16.852-13.809-33.558 0.702-48.83 54.565-68.696 220.57-250.997 454.042-269.575 10.299-1.17 20.714-1.843 31.334-1.843 1.17 0 2.282 0.176 3.423 0.176 1.229 0 2.428-0.176 3.686-0.176 210.798 0 419.489 204.976 480.929 270.658 11.352 11.557 11.82 28.233-0.205 42.92zM117.672 447.707c-7.87 9.45-10.679 28.467 1.346 39.292 24.693 26.361 74.43 74.928 140.785 117.555-21.504-41.428-33.792-88.737-33.792-139.001 0-51.405 12.815-99.738 35.255-141.809-69.983 44.412-119.72 96.285-143.594 123.963zM511.678 244.429c-118.316 0-214.221 98.977-214.221 221.096s95.905 221.096 214.221 221.096c118.287 0 214.25-98.977 214.25-221.096s-95.963-221.096-214.25-221.096zM906.854 445.893c-24.664-24.196-75.688-70.832-140.464-113.225 19.602 39.965 30.896 84.992 30.896 132.857 0 49.591-11.995 96.256-32.973 137.275 66.209-43.213 115.741-92.394 140.698-119.545 8.251-6.817 11.293-25.015 1.843-37.361zM595.003 440.978c-46.051 0-83.324 38.473-83.324 85.957 0 34.055 19.31 63.195 47.104 77.122-14.804 5.383-30.486 8.865-47.104 8.865-78.907 0-142.833-65.975-142.833-147.397s63.927-147.427 142.833-147.427c78.877 0 142.775 66.004 142.775 147.427 0 0.41-0.117 0.79-0.117 1.2-15.097-15.857-36.074-25.746-59.333-25.746z" />
<glyph unicode="&#xe910;" glyph-name="store" d="M905.889 828.752c0 29.023-23.493 52.517-52.517 52.517h-682.774c-29.023 0-52.517-23.523-52.517-52.517l-52.517-761.563c0-29.023 23.523-52.517 52.517-52.517h787.807c29.023 0 52.517 23.493 52.517 52.517l-52.517 761.563zM853.372 93.433h-682.774c-14.512 0-26.244 11.761-26.244 26.273l52.517 656.53c0 14.512 11.761 26.244 26.244 26.244h577.741c14.512 0 26.214-11.732 26.214-26.244l52.575-656.53c0-14.512-11.761-26.273-26.273-26.273zM708.754 723.719c-21.884 0-39.556-17.642-39.556-39.38 0-4.798 1.141-9.275 2.75-13.546h-2.165c0-86.864-70.51-157.286-157.52-157.286s-157.55 70.422-157.55 157.286h-2.662c1.58 4.272 2.75 8.748 2.75 13.546 0 21.738-17.701 39.38-39.585 39.38s-39.585-17.642-39.585-39.38c0-4.798 1.17-9.275 2.75-13.546h-2.838c0-130.311 105.794-235.93 236.31-235.93 130.487 0 236.31 105.648 236.31 235.93h-2.575c1.551 4.272 2.75 8.748 2.75 13.546 0 21.738-17.701 39.38-39.585 39.38z" />
<glyph unicode="&#xe911;" glyph-name="site" d="M982.806 454.7l-445.089 423.965c-14.248 13.488-37.215 13.488-51.376 0l-445.118-423.965c-14.19-13.488-14.19-35.372 0-48.918 14.16-13.488 37.186-13.488 51.346 0l419.46 399.506 419.401-399.506c14.16-13.488 37.186-13.488 51.376 0 14.16 13.546 14.16 35.401 0 48.918zM817.737 419.474c-19.427 0-35.196-15.77-35.196-35.255 0-0.176 0.117-0.351 0.117-0.527h-0.117v-269.605c0-12.961-10.503-23.493-23.493-23.493h-94.003c-12.961 0-23.493 10.503-23.493 23.493v152.108h-0.117c0 0.234 0.117 0.351 0.117 0.585 0 15.301-9.889 27.999-23.493 32.856v2.399h-211.383v-2.399c-13.634-4.857-23.493-17.554-23.493-32.856 0-0.234 0.117-0.351 0.117-0.585h-0.117v-152.108c0-12.961-10.503-23.493-23.493-23.493h-93.945c-12.961 0-23.493 10.503-23.493 23.493v269.605h-0.117c0 0.176 0.117 0.351 0.117 0.527 0 19.485-15.77 35.255-35.226 35.255-19.485 0-35.255-15.77-35.255-35.255 0-0.176 0.088-0.351 0.117-0.527h-0.117v-293.098c0-38.912 31.568-70.451 70.48-70.451h140.932c38.912 0 70.48 31.539 70.48 70.451v140.902h117.409v-140.902c0-38.912 31.568-70.451 70.48-70.451h140.961c38.912 0 70.48 31.539 70.48 70.451v293.127h-0.117c0 0.176 0.117 0.351 0.117 0.527 0.029 19.456-15.77 35.226-35.255 35.226z" />
<glyph unicode="&#xe912;" glyph-name="phone" d="M762.716 461.148c-143.688 0-260.178-116.449-260.178-260.178 0-5.98 0.492-11.96 0.942-17.9-58.327 52.716-115.22 104.12-133.079 120.259-8.888 7.987-67.133 72.417-120.709 132.055 3.85-0.164 7.66-0.573 11.592-0.573 143.688 0 260.178 116.449 260.178 260.137s-116.449 260.219-260.178 260.219-260.178-116.49-260.178-260.178c0-85.074 23.388-126.362 102.687-211.763s204.718-220.119 217.047-233.759c12.82-14.172 243.589-219.996 243.589-219.996l10.199-7.782c47.677-55.132 109.445-80.814 188.088-80.814 143.688 0 260.178 116.49 260.178 260.178s-116.49 260.096-260.178 260.096zM74.301 694.989c0 103.26 83.722 186.982 186.982 186.982s186.982-83.722 186.982-186.982c0-103.26-83.681-186.941-186.982-186.941-103.219-0.041-186.982 83.681-186.982 186.941zM762.716 14.029c-103.26 0-186.982 83.722-186.982 186.941s83.722 186.982 186.982 186.982c103.301 0 186.982-83.763 186.982-186.982s-83.64-186.941-186.982-186.941z" />
<glyph unicode="&#xe913;" glyph-name="u-human" d="M970.982 869.811c0.819-0.717 1.818-2.304 1.818-4.787v-774.221c0-3.661-2.15-5.248-2.688-5.248-2.662 0-5.376-0.205-8.013-0.589l-369.843-58.701c-0.794 0.742-1.818 2.355-1.818 4.813v774.17c0 3.584 2.15 5.299 2.662 5.299 2.662 0 5.376 0.23 8.013 0.64l369.869 58.624zM52.992 869.811l369.92-58.65c2.662-0.461 5.325-0.64 8.013-0.64 0.538 0 2.662-1.69 2.662-5.299v-774.221c0-2.458-0.998-4.045-1.766-4.813l-369.92 58.701c-2.662 0.41-5.35 0.589-8.013 0.589-0.538 0.026-2.688 1.613-2.688 5.274v774.272c0 2.432 0.998 4.019 1.792 4.787zM970.112 921.498l-377.062-59.776c-29.722 0-53.862-25.242-53.862-56.499v-774.221c0-31.206 24.115-56.499 53.862-56.499l377.062 59.802c29.773 0 53.888 25.242 53.888 56.448v774.272c0 31.181-24.115 56.474-53.888 56.474v0zM53.862 921.498c-29.773 0-53.862-25.293-53.862-56.474v-774.221c0-31.206 24.090-56.448 53.862-56.448l377.062-59.802c29.747 0 53.862 25.242 53.862 56.448v774.246c0 31.232-24.115 56.499-53.862 56.499l-377.062 59.75z" />
<glyph unicode="&#xe914;" glyph-name="m-human" d="M430.899 861.722l-377.037 59.776c-29.773 0-53.862-25.293-53.862-56.474v-774.221c0-31.206 24.090-56.448 53.862-56.448l377.062-59.802c29.747 0 53.862 25.242 53.862 56.448v774.246c0 31.206-24.141 56.474-53.888 56.474zM970.112 921.498l-377.062-59.776c-29.722 0-53.862-25.242-53.862-56.499v-774.221c0-31.206 24.115-56.499 53.862-56.499l377.062 59.802c29.773 0 53.888 25.242 53.888 56.448v774.272c0 31.181-24.115 56.474-53.888 56.474z" />
<glyph unicode="&#xe915;" glyph-name="u-home" d="M921.626 857.574v-326.118h-324.736v326.118h324.736zM427.11 857.574v-326.118h-324.71v326.118h324.71zM921.626 364.621v-326.195h-324.736v326.195h324.736zM427.11 364.621v-326.195h-324.71v326.195h324.71zM925.338 908.774h-332.16c-26.214 0-47.462-21.299-47.462-47.59v-333.363c0-26.266 21.197-47.565 47.462-47.565h332.186c26.24 0 47.462 21.299 47.462 47.565v333.363c-0.026 26.291-21.222 47.59-47.488 47.59v0zM430.848 908.774h-332.211c-26.189 0-47.437-21.299-47.437-47.59v-333.363c0-26.266 21.248-47.565 47.437-47.565h332.211c26.189 0 47.462 21.299 47.462 47.565v333.363c0 26.291-21.248 47.59-47.462 47.59v0zM925.338 415.821h-332.16c-26.214 0-47.462-21.35-47.462-47.642v-333.338c0-26.266 21.248-47.616 47.462-47.616h332.186c26.24 0 47.462 21.35 47.462 47.616v333.338c-0.026 26.291-21.222 47.642-47.488 47.642v0zM430.848 415.821h-332.211c-26.189 0-47.437-21.35-47.437-47.642v-333.338c0-26.266 21.248-47.616 47.437-47.616h332.211c26.189 0 47.462 21.35 47.462 47.616v333.338c0 26.291-21.248 47.642-47.462 47.642v0z" />
<glyph unicode="&#xe916;" glyph-name="m-home" d="M430.848 908.774h-332.211c-26.189 0-47.437-21.299-47.437-47.59v-333.363c0-26.266 21.248-47.565 47.437-47.565h332.211c26.189 0 47.462 21.299 47.462 47.565v333.363c0 26.291-21.248 47.59-47.462 47.59zM925.338 908.774h-332.16c-26.24 0-47.462-21.299-47.462-47.59v-333.363c0-26.266 21.197-47.565 47.462-47.565h332.186c26.24 0 47.462 21.299 47.462 47.565v333.363c-0.026 26.291-21.222 47.59-47.488 47.59zM430.848 415.821h-332.211c-26.189 0-47.437-21.35-47.437-47.642v-333.338c0-26.266 21.248-47.616 47.437-47.616h332.211c26.189 0 47.462 21.35 47.462 47.616v333.338c0 26.291-21.248 47.642-47.462 47.642zM925.338 415.821h-332.16c-26.214 0-47.462-21.35-47.462-47.642v-333.338c0-26.266 21.222-47.616 47.462-47.616h332.186c26.24 0 47.462 21.35 47.462 47.616v333.338c-0.026 26.291-21.222 47.642-47.488 47.642z" />
<glyph unicode="&#xe917;" glyph-name="u-office" d="M970.086 870.298c1.51 0 2.714-1.178 2.714-2.662-0.102-115.072-0.256-333.594-0.307-343.219 0-1.050 0-2.074 0.051-3.123l0.154-2.918 0.102-0.998c0-42.291-34.458-76.749-76.8-76.749s-76.8 34.458-76.8 76.749c0 28.262-22.938 51.2-51.2 51.2s-51.2-22.938-51.2-51.2c0-42.291-34.458-76.749-76.8-76.749-42.317 0-76.8 34.458-76.8 76.749 0 28.262-22.938 51.2-51.2 51.2s-51.2-22.938-51.2-51.2c0-42.291-34.458-76.749-76.8-76.749s-76.8 34.458-76.8 76.749c0 28.262-22.938 51.2-51.2 51.2s-51.2-22.938-51.2-51.2c0-42.291-34.458-76.749-76.851-76.749-42.317 0-76.749 34.458-76.749 76.749v350.259c0 1.485 1.203 2.662 2.662 2.662h916.224zM830.746 266.906v-159.053c0-28.262 22.938-51.2 51.2-51.2h64.845v-30.95h-869.606v30.95h64.845c28.262 0 51.2 22.938 51.2 51.2v159.053h31.002v-159.053c0-28.262 22.938-51.2 51.2-51.2h473.114c28.262 0 51.2 22.938 51.2 51.2v159.053h31.002zM970.086 921.498h-916.224c-29.722 0-53.862-24.064-53.862-53.862 0 0 0-348.058 0-350.208 0-70.682 57.344-127.974 128-127.974 70.733 0 128.051 57.293 128.051 127.974 0-70.682 57.242-127.974 127.949-127.974s128 57.293 128 127.974c0-70.682 57.344-127.974 128.051-127.974s127.949 57.293 127.949 127.974c0-70.682 57.344-127.974 128-127.974 70.758 0 128 57.293 128 127.974 0 2.15-0.205 4.25-0.307 6.349 0.051 0 0.307 343.859 0.307 343.859 0 29.747-24.090 53.862-53.914 53.862v0zM854.938 318.106h-79.309c-14.925 0-27.085-16.794-27.085-37.658v-172.595h-473.114v172.595c0 20.838-12.134 37.658-27.085 37.658h-79.309c-14.925 0-27.034-16.794-27.034-37.658v-172.595h-78.413c-20.787 0-37.658-12.109-37.658-27.059v-79.309c0-14.95 16.87-27.008 37.658-27.008h896.691c20.813 0 37.709 12.058 37.709 27.008v79.309c0 14.95-16.896 27.059-37.709 27.059h-78.362v172.595c0.026 20.864-12.058 37.658-26.982 37.658v0z" />
<glyph unicode="&#xe918;" glyph-name="search" d="M1024-1.905l-203.94 203.94c64.43 79.38 103.219 180.388 103.219 290.406 0 254.566-207.053 461.66-461.66 461.66-254.525-0.041-461.619-207.094-461.619-461.66s207.094-461.66 461.66-461.66c116.040 0 221.88 43.377 303.063 114.278l203.121-203.121 56.156 56.156zM461.66 110.203c-210.739 0-382.239 171.5-382.239 382.239s171.5 382.239 382.239 382.239c210.78 0 382.239-171.5 382.239-382.239s-171.5-382.239-382.239-382.239z" />
<glyph unicode="&#xe919;" glyph-name="settings" d="M512.088 604.145c-86.279 0-156.204-69.954-156.204-156.175 0-86.309 69.925-156.233 156.204-156.233s156.204 69.954 156.204 156.233c0.029 86.221-69.925 156.175-156.204 156.175zM512.029 363.886c-46.46 0-84.114 37.595-84.114 84.085s37.654 84.114 84.114 84.114c46.431 0 84.114-37.654 84.114-84.114s-37.654-84.085-84.114-84.085zM944.538 484.045h-85.899c-7.139 69.164-34.699 132.242-76.273 183.384l60.972 60.943c14.102 14.073 14.102 36.923 0 50.995-14.043 14.043-36.923 14.043-50.966 0l-60.972-61.001c-51.141 41.516-114.161 68.988-183.384 76.069v86.162c0 19.895-16.15 36.045-36.045 36.045-19.924 0-36.016-16.15-36.016-36.045v-86.192c-69.105-7.139-132.067-34.67-183.15-76.215l-61.206 61.206c-14.073 14.043-36.893 14.043-50.966 0-14.073-14.073-14.073-36.923 0-50.995l61.206-61.206c-41.487-51.112-68.93-114.044-76.098-183.12h-86.338c-19.924 0-36.045-16.179-36.045-36.045 0-19.953 16.121-36.074 36.045-36.074h86.309c7.080-69.135 34.523-132.125 75.981-183.267l-61.060-61.089c-14.073-14.043-14.073-36.864 0-50.966 14.073-14.043 36.893-14.043 50.966 0l61.001 61.030c51.141-41.662 114.161-69.252 183.355-76.39v-85.84c0-19.953 16.121-36.045 36.016-36.045s36.045 16.121 36.045 36.045v85.782c69.252 7.080 132.33 34.64 183.53 76.215l60.796-60.796c14.043-14.043 36.923-14.043 50.966 0 14.102 14.102 14.102 36.923 0 50.966l-60.796 60.855c41.545 51.141 69.076 114.22 76.186 183.472h85.84c19.953 0 36.045 16.121 36.045 36.074 0.029 19.895-16.091 36.045-36.045 36.045zM512.176 171.549c-152.635 0-276.363 123.728-276.363 276.363 0 152.605 123.728 276.334 276.363 276.334 152.576 0 276.304-123.728 276.304-276.334 0-152.664-123.699-276.363-276.304-276.363z" />
<glyph unicode="&#xe91a;" horiz-adv-x="1063" d="M514.716-24.615c262.518 0 475.332 211.597 475.332 472.615s-212.813 472.615-475.332 472.615c-262.518 0-475.332-211.597-475.332-472.615s212.813-472.615 475.332-472.615z" />
<glyph unicode="&#xe91b;" horiz-adv-x="1063" d="M343.597 582.003c1.063 34.616 5.181 61.712 12.354 81.29s19.262 37.453 36.266 53.626c17.004 16.173 36 28.090 56.989 35.751s42.642 11.491 64.96 11.491c47.292 0 85.949-14.328 115.971-42.986s45.034-67.103 45.034-115.338c0-24.401-4.517-45.397-13.55-62.989s-28.694-41.425-58.982-71.501c-32.945-33.481-53.137-58.166-60.576-74.055s-11.159-42.276-11.159-79.162h-54.997c1.063 33.481 6.111 61.712 15.144 84.695s28.827 51.214 59.381 84.695c30.554 33.481 49.683 57.172 57.388 71.076s11.557 31.353 11.557 52.349c0 31.778-9.697 57.314-29.093 76.608s-45.565 28.941-78.51 28.941c-71.204 0-109.994-44.83-116.37-134.49h-51.809zM536.484 168.317h-61.373v69.799h61.373v-69.799z" />
<glyph unicode="&#xe91c;" glyph-name="down" d="M807.772 687.944l-295.772-319.939-295.772 319.939-73.892-79.954 369.664-399.892 369.664 399.892-73.892 79.954z" />
<glyph unicode="&#xe91d;" glyph-name="story" horiz-adv-x="1229" d="M617.238 7.329c-11.147 0-22.294 4.242-30.866 12.698l-529.467 523.644c-14.365 14.19-17.174 36.367-6.817 53.716l176.684 295.702c7.929 13.253 22.235 21.358 37.683 21.358h701.411c15.448 0 29.784-8.133 37.683-21.387l175.484-294.122c10.299-17.232 7.578-39.263-6.641-53.482l-524.083-525.224c-8.572-8.602-19.836-12.902-31.071-12.902zM143.097 581.881l473.966-468.729 469.138 470.133-145.232 243.39h-651.615l-146.256-244.795zM1172.144 608.923l0.17-58.514-1109.138-3.217-0.17 58.514 1109.138 3.217zM379.816 526.38l-167.702 359.892 53.014 24.722 125.952-270.277 225.485 307.639 228.001-308.224 129.053 271.448 52.868-25.132-170.949-359.512-238.738 322.736zM617.501-57.797l-261.53 658.315 54.389 21.592 207.053-521.099 206.058 521.070 54.389-21.533z" />
<glyph unicode="&#xe91e;" glyph-name="like-heart" d="M511.781 685.202c-132.169 292.279-507.867 224.073-510.318-115.127-1.463-196.315 495.945-494.409 511.086-543.451 13.751 50.981 511.451 350.501 510.025 545.499-2.487 340.005-384.731 393.691-510.793 113.079z" />
<glyph unicode="&#xe91f;" glyph-name="comment-solid" d="M883.785 905.143h-743.534c-77.458 0-140.251-63.195-140.251-141.056v-478.61c0-75.118 51.566-148.334 129.024-148.334h236.69l143.36-146.286 149.211 146.286h236.69c77.458 0 129.024 73.216 129.024 148.334v478.61c0 77.861-62.793 141.056-140.215 141.056zM307.2 408.832c-56.576 0-102.437 46.775-102.437 104.485s45.861 104.485 102.437 104.485c56.539 0 102.4-46.775 102.4-104.485s-45.861-104.485-102.4-104.485zM716.8 408.832c-56.539 0-102.4 46.775-102.4 104.485s45.861 104.485 102.4 104.485c56.576 0 102.437-46.775 102.437-104.485-0.037-57.71-45.897-104.485-102.437-104.485z" />
<glyph unicode="&#xe920;" glyph-name="new-product" horiz-adv-x="1088" d="M937.824 959.936c-81.888-30.144-260.736-43.52-393.824 0-133.056-43.52-311.936-30.144-393.824 0-108.8-137.28-150.048-269.504-150.048-395.072 0-125.536 61.6-506.048 543.872-628.8 482.304 122.752 543.872 503.296 543.872 628.8 0 125.568-41.248 257.792-150.048 395.072zM702.176 256l-158.176 73.12-158.176-73.12 21.696 170.944-119.456 125.728 171.584 32.512 84.352 150.816 84.384-150.848 171.584-32.512-119.456-125.728 21.664-170.912z" />
<glyph unicode="&#xe921;" glyph-name="auction" horiz-adv-x="1088" d="M310.176 452.96l120.736-74.752c50.016-31.008 115.808-15.744 146.912 34.016l74.528 119.264 310.432-192.16c20.832-12.928 48.256-6.56 61.216 14.176l9.376 15.008c12.96 20.736 6.592 48-14.272 60.928l-310.432 192.16 63.328 101.344c31.136 49.76 15.808 115.232-34.208 146.176l-120.768 74.752c-50.016 30.976-115.808 15.712-146.912-34.048l-194.208-310.688c-31.072-49.76-15.744-115.232 34.272-146.176zM988.416 42.080h-888.832c-49.056 0-99.36-57.248-99.52-106.048h1087.904c-0.16 48.8-50.496 106.048-99.552 106.048z" />
<glyph unicode="&#xe922;" glyph-name="trophy" d="M526.336 686.535l-37.177-109.568-113.18-2.332 90.197-70.172-32.796-111.019 92.956 66.276 92.928-66.276-32.768 111.019 90.226 70.172-113.18 2.332-37.205 109.568zM315.847 642.361h-63.516c0.313-61.184 6.656-166.997 91.534-191.090 7.566-2.389 14.308-4.551 20.736-6.571-30.436 53.276-48.725 90.453-48.725 155.051v42.61zM736.768 599.723h0.057c0-64.626-18.375-101.86-48.839-155.164 6.4 2.048 13.056 4.409 20.679 6.684 84.679 25.429 91.278 129.934 91.676 191.090h-63.545v-42.61zM512 960c-282.766 0-512-229.234-512-512s229.234-512 512-512c282.795 0 512 229.234 512 512s-229.234 512-512 512zM717.881 393.472c-23.78-7.765-42.553-13.596-57.344-17.806-29.099-36.181-52.423-60.956-91.648-69.888v-142.222c101.945-6.457 167.936-38.77 167.936-85.333h-420.978c0 46.564 65.678 78.876 167.68 85.333v142.222c-39.367 8.932-62.492 33.82-91.676 70.201-14.791 4.181-33.479 9.87-57.060 17.493-192.569 62.322-139.861 308.139-139.861 308.139h120.917v30.834h420.949v-30.834h120.946c-0.028 0 52.48-244.935-139.861-308.139z" />
<glyph unicode="&#xe923;" glyph-name="price" d="M512 960c-282.766 0-512-229.234-512-512s229.234-512 512-512c282.766 0 512 229.234 512 512s-229.234 512-512 512zM736.825 389.433v-46.080h-168.107v-61.412h168.107v-45.255h-168.107v-144.185h-78.507v144.185h-168.932v45.255h168.932v61.412h-168.932v46.080h146.773l-206.535 318.293h91.307l101.547-172.373c29.867-53.76 46.080-81.92 73.387-130.56h4.267c29.042 48.64 45.227 77.625 73.358 130.56l100.722 172.373h90.453l-205.653-318.265h145.92z" />
<glyph unicode="&#xe924;" glyph-name="share" horiz-adv-x="1092" d="M887.467 345.463c-69.188 0-130.253-34.441-167.322-87.006l-313.378 156.706c1.707 10.684 2.833 21.538 2.833 32.7 0 17.954-2.56 35.294-6.895 51.917l133.188 112.64c37.205-38.263 89.156-62.123 146.773-62.123 113.084 0 204.8 91.716 204.8 204.8s-91.716 204.8-204.8 204.8-204.8-91.716-204.8-204.8c0-27.716 5.598-54.17 15.565-78.302l-124.245-107.145c-37.308 50.278-96.939 83.012-164.386 83.012-113.084 0-204.8-91.716-204.8-204.8s91.716-204.8 204.8-204.8c73.66 0 138.035 39.049 174.148 97.417l303.718-165.683 3.618 3.618c-2.287-12.254-3.618-24.849-3.618-37.751 0-113.084 91.716-204.8 204.8-204.8s204.8 91.716 204.8 204.8-91.716 204.8-204.8 204.8zM682.803 874.394c66.014 0 119.467-53.487 119.467-119.467 0-66.014-53.453-119.467-119.467-119.467-65.98 0-119.467 53.453-119.467 119.467 0 65.98 53.487 119.467 119.467 119.467zM204.937 328.26c-65.98 0-119.467 53.453-119.467 119.467 0 65.98 53.487 119.467 119.467 119.467 66.014 0 119.467-53.487 119.467-119.467s-53.453-119.467-119.467-119.467zM887.603 21.060c-65.98 0-119.467 53.453-119.467 119.467 0 65.98 53.487 119.467 119.467 119.467 66.014 0 119.467-53.487 119.467-119.467s-53.453-119.467-119.467-119.467z" />
<glyph unicode="&#xe925;" glyph-name="more" d="M512 960c-282.761 0-512-229.239-512-512s229.239-512 512-512c282.761 0 512 229.239 512 512s-229.239 512-512 512zM341.333 396.8c-28.279 0-51.2 22.921-51.2 51.2s22.921 51.2 51.2 51.2 51.2-22.921 51.2-51.2c0-28.279-22.921-51.2-51.2-51.2zM512 396.8c-28.279 0-51.2 22.921-51.2 51.2s22.921 51.2 51.2 51.2c28.297 0 51.2-22.921 51.2-51.2s-22.903-51.2-51.2-51.2zM682.667 396.8c-28.262 0-51.2 22.921-51.2 51.2s22.938 51.2 51.2 51.2c28.297 0 51.2-22.921 51.2-51.2s-22.903-51.2-51.2-51.2z" />
<glyph unicode="&#xe926;" glyph-name="like-solid" horiz-adv-x="1086" d="M0 435.117c0 35.546 26.606 75.212 59.693 88.706l11.271 4.597c31.725 12.938 57.444-4.395 57.444-38.533v-444.936c0-34.22-25.369-50.003-55.948-35.59l-14.267 6.725c-32.139 15.148-58.193 55.951-58.193 91.79v327.242zM185.172 504.421c0 34.173 26.354 70.241 58.681 82.193 0 0 72.101 15.761 154.376 89.807s147.824 283.579 218.217 283.579c70.393 0 134.926-51.506 134.926-118.548 0-78.55 7.137-180.253-121.251-231.467 0 0 142.122 10.998 258.609 10.998s186.34-44.053 186.34-118.226c0-74.173-22.126-248.081-71.348-352.175s-182.814-214.581-344.052-214.581c-161.239 0-412.942 25.266-412.942 25.266-33.996 3.183-61.555 33.466-61.555 67.639v475.516z" />
<glyph unicode="&#xe927;" glyph-name="user-profile" horiz-adv-x="1088" d="M544 960c140.832 0 255.008-114.176 255.008-255.008v-70.016c0-140.8-114.176-255.008-255.008-255.008s-255.008 114.176-255.008 255.008v70.016c0 140.832 114.176 255.008 255.008 255.008zM1087.936 22.368c-129.312-52.768-323.456-86.368-540.64-86.368-220.896 0-417.984 34.752-547.232 89.056 58.464 169.12 279.52 294.944 543.456 294.944 265.376 0 487.392-127.2 544.416-297.632z" />
<glyph unicode="&#xe928;" glyph-name="success" d="M451.789 135.823c-23.552 0-46.019 7.762-63.857 22.426l-248.873 204.534c-23.224 19.087-26.583 53.412-7.475 76.636 19.128 23.265 53.412 26.583 76.657 7.496l245.33-201.626c1.782 0.737 4.444 2.376 7.107 5.591l402.289 489.431c19.128 23.265 53.453 26.583 76.636 7.475 23.245-19.087 26.583-53.412 7.496-76.657l-402.309-489.39c-18.678-22.753-44.093-38.318-71.557-43.786-7.168-1.413-14.356-2.13-21.443-2.13z" />
<glyph unicode="&#xe929;" glyph-name="error" d="M541.819 217.58c0-23.051-18.687-41.738-41.738-41.738s-41.738 18.687-41.738 41.738c0 23.051 18.687 41.738 41.738 41.738s41.738-18.687 41.738-41.738zM571.023 714.629c0 39.096-31.703 70.799-70.799 70.799s-70.799-31.703-70.799-70.799c0-0.901 0.225-1.761 0.266-2.662h-0.266l26.849-367.35c0-0.082-0.020-0.164-0.020-0.225 0-24.207 19.62-43.827 43.827-43.827 23.757 0 42.967 18.924 43.704 42.496h0.266l26.685 367.923h-0.082c0.061 1.229 0.369 2.396 0.369 3.645z" />
<glyph unicode="&#xe92a;" glyph-name="add" d="M409.6 550.4h-409.6v-204.8h409.6v-409.6h204.8v409.6h409.6v204.8h-409.6v409.6h-204.8v-409.6z" />
<glyph unicode="&#xe92b;" glyph-name="subtract" d="M0 550.4h1024v-204.8h-1024v204.8z" />
<glyph unicode="&#xe92c;" glyph-name="record" d="M827.077 881.231v-794.86l-269.942 188.692c-13.548 9.492-29.342 14.218-45.135 14.218s-31.586-4.726-45.135-14.218l-269.942-188.692v794.86h630.154zM905.846 960h-787.692v-1024h1.142l392.704 274.55 392.704-274.55h1.142v1024zM315.077 722.865h393.846v-78.769h-393.846v78.769zM315.077 563.121h393.846v-78.769h-393.846v78.769z" />
<glyph unicode="&#xe92d;" glyph-name="clock" d="M512-64c-282.331 0-512 229.705-512 512s229.705 512 512 512c282.331 0 512-229.705 512-512s-229.632-512-512-512zM512 890.149c-243.822 0-442.149-198.327-442.149-442.149 0-243.785 198.363-442.149 442.185-442.149 243.785 0 442.112 198.363 442.112 442.149 0 243.822-198.363 442.149-442.149 442.149zM536.283 426.423l-183.589-201.070c0 0-23.113-21.943-44.654-2.304-21.577 19.712-2.304 45.093-2.304 45.093l174.775 191.488v367.214c0 0 2.304 32.219 31.451 32.11 29.147-0.146 32.073-32.11 32.073-32.11v-374.162c1.463-14.080-7.753-26.258-7.753-26.258z" />
<glyph unicode="&#xe92e;" glyph-name="enter-slim" horiz-adv-x="591" d="M98.462-44.308l-69.906 69.906 419.433 419.433 69.906-69.906-419.433-419.433zM28.556 864.465l69.906 69.906 489.339-489.339-69.906-69.906-489.339 489.339z" />
<glyph unicode="&#xe92f;" glyph-name="argue" d="M30.72 786.801h860.16c16.957 0 30.72 13.763 30.72 30.72 0 16.978-13.763 30.72-30.72 30.72h-860.16c-16.957 0-30.72-13.742-30.72-30.72 0-16.957 13.763-30.72 30.72-30.72zM30.72 561.521c-16.957 0-30.72-13.742-30.72-30.72 0-16.957 13.763-30.72 30.72-30.72h588.104c37.745 30.925 83.21 52.449 133.038 61.44h-721.142zM510.177 274.801h-479.457c-16.957 0-30.72-13.763-30.72-30.72s13.763-30.72 30.72-30.72h484.639c-3.461 18.248-5.448 37.048-5.448 56.32 0 1.72 0.246 3.4 0.266 5.12zM804.086 491.602c-121.487 0-219.955-99.369-219.955-221.921s98.509-221.921 219.955-221.921c121.467 0 219.914 99.369 219.914 221.921s-98.488 221.921-219.914 221.921zM908.8 217.682h-102.4c-16.957 0-30.72 13.722-30.72 30.72v122.88c0 16.957 13.763 30.72 30.72 30.72 16.978 0 30.72-13.763 30.72-30.72v-92.16h71.68c16.957 0 30.72-13.763 30.72-30.72 0-16.998-13.763-30.72-30.72-30.72z" />
<glyph unicode="&#xe930;" glyph-name="payment" d="M797.839 301.261c-100.884 0-182.6-81.756-182.6-182.62 0-100.884 81.715-182.641 182.6-182.641s182.641 81.756 182.641 182.641c0 100.864-81.756 182.62-182.641 182.62zM888.914 135.967l-117.289-104.55-64.84 58.040v69.939l64.84-58.020 117.289 104.53v-69.939zM166.4 40.407c-33.853 0-61.44 27.566-61.44 61.44v735.273c0 33.874 27.587 61.44 61.44 61.44h606.618c33.874 0 61.44-27.566 61.44-61.44v-485.192c21.606-3.359 42.209-9.585 61.44-18.35v503.542c0 67.85-55.050 122.88-122.88 122.88h-606.618c-67.85 0-122.88-55.050-122.88-122.88v-735.273c0-67.85 55.030-122.88 122.88-122.88h441.098c-13.681 18.575-24.678 39.24-32.44 61.44h-408.658zM625.316 793.661l-157.348-274.719c-17.039 38.748-77.722 130.273-156.795 274.719h-75.203l171.356-290.775h-145.080v-58.982h169.001v-93.778h-169.001v-54.559h169.001v-139.448h68.055v139.448h163.205v54.559h-164.27v93.778h164.27v58.982h-134.636l169.841 290.775h-72.397z" />
<glyph unicode="&#xe931;" glyph-name="weixin" d="M693.209 611.289c11.756 0 23.375-0.847 34.895-2.107-31.35 144.778-187.471 252.357-365.666 252.357-199.227 0-362.437-134.656-362.437-305.644 0-98.698 54.292-179.732 145.034-242.59l-36.254-108.111 126.7 62.996c45.332-8.901 81.703-18.058 126.956-18.058 11.362 0 22.646 0.571 33.831 1.438-7.070 24.025-11.185 49.191-11.185 75.284 0 157.007 135.956 284.436 308.126 284.436zM498.334 708.726c27.294 0 45.351-17.782 45.351-44.839 0-26.939-18.058-44.977-45.351-44.977-27.156 0-54.43 18.038-54.43 44.977 0 27.057 27.274 44.839 54.43 44.839zM244.677 618.91c-27.156 0-54.567 18.038-54.567 44.977 0 27.057 27.412 44.839 54.567 44.839s45.253-17.782 45.253-44.839c0-26.939-18.078-44.977-45.253-44.977zM1024 331.185c0 143.675-144.994 260.785-307.85 260.785-172.465 0-308.263-117.11-308.263-260.785 0-143.931 135.798-260.785 308.263-260.785 36.076 0 72.507 9.019 108.721 18.018l99.446-53.957-27.274 89.817c72.763 54.114 126.956 125.854 126.956 206.907zM616.192 376.182c-18.038 0-36.234 17.782-36.234 35.938 0 17.92 18.196 35.938 36.234 35.938 27.431 0 45.391-18.018 45.391-35.938 0-18.156-17.959-35.938-45.391-35.938zM815.557 376.182c-17.92 0-35.998 17.782-35.998 35.938 0 17.92 18.078 35.938 35.998 35.938 27.175 0 45.371-18.018 45.371-35.938 0-18.156-18.196-35.938-45.371-35.938z" />
<glyph unicode="&#xe932;" glyph-name="pay-guarantee" d="M512 883.2c68.389-19.822 137.435-24.283 185.417-24.283 55.077 0 109.714 5.815 155.611 16.091 65.865-100.791 97.975-202.715 97.975-310.162 0-71.461-21.394-429.531-439.003-552.777-417.573 123.282-439.003 481.317-439.003 552.777 0 107.483 32.11 209.408 98.011 310.162 45.897-10.313 100.535-16.091 155.575-16.091 48.018 0 117.029 4.462 185.417 24.283zM882.871 959.927c-41.947-16.421-111.031-27.867-185.417-27.867-62.281 0-128.329 8.009-185.417 27.867-57.088-19.822-123.136-27.867-185.417-27.867-74.386 0-143.433 11.447-185.417 27.867-102.473-137.253-141.349-269.495-141.349-395.081 0-125.513 58.039-506.039 512.146-628.773 454.144 122.734 512.146 503.259 512.146 628.773 0 125.586-38.875 257.829-141.275 395.081v0zM703.415 630.93l-275.163-217.381-93.038 126.976-61.147-48.274 139.557-190.537 336.311 265.691z" />
<glyph unicode="&#xe933;" glyph-name="address" d="M512.032 884.608c187.936 0 340.864-153.12 340.864-341.344 0-86.72-32.928-169.504-92.576-233.28l-1.184-1.248-1.12-1.312c-31.936-37.376-204.48-237.504-245.984-285.696-42.112 49.44-212.672 249.376-248.128 288.064-59.744 63.712-92.672 146.624-92.672 233.376 0 188.32 152.832 341.44 340.8 341.44zM512.032 960c-229.856 0-416.224-186.592-416.224-416.704 0-110.368 43.2-210.496 113.152-284.992 38.624-42.176 254.912-296.128 254.912-296.128 17.376-17.44 32.8-26.176 48.16-26.176 15.392 0 30.848 8.672 48.256 26.112 0 0 218.688 253.824 255.072 296.384 69.824 74.56 112.832 174.464 112.832 284.768 0 230.144-186.24 416.736-416.16 416.736v0zM512.032 692.704c82.016 0 148.704-66.656 148.704-148.672s-66.72-148.704-148.704-148.704-148.672 66.688-148.672 148.704 66.656 148.672 148.672 148.672zM512.032 768.128c-123.776 0-224.096-100.352-224.096-224.128 0-123.744 100.32-224.128 224.064-224.128s224.064 100.416 224.064 224.128-100.256 224.128-224.032 224.128v0z" />
<glyph unicode="&#xe934;" glyph-name="down-slim" d="M511.961 250.407l-472.773 472.891-39.227-39.266 512-512.118 512 512.118-39.227 39.266z" />
<glyph unicode="&#xe935;" glyph-name="delete" d="M954.734 740.974h-150.162v62.464c0 60.489-49.225 109.714-109.714 109.714h-365.714c-60.489 0-109.714-49.225-109.714-109.714v-62.464h-150.162c-18.066 0-32.695-16.421-32.695-36.571 0-20.224 14.629-36.571 32.695-36.571h885.504c18.066 0 32.695 16.347 32.695 36.571-0.037 20.151-14.629 36.571-32.731 36.571zM292.571 803.438c0 20.187 16.421 36.571 36.571 36.571h365.714c20.187 0 36.571-16.384 36.571-36.571v-62.464h-438.857v62.464zM817.518 603.099c-20.224 0-36.571-16.384-36.571-36.571v-473.966c0-20.187-16.384-36.571-36.571-36.571h-464.75c-20.187 0-36.571 16.384-36.571 36.571v473.966c0 20.187-16.384 36.571-36.571 36.571-20.224 0-36.571-16.384-36.571-36.571v-473.966c0-60.489 49.225-109.714 109.714-109.714h464.786c60.489 0 109.714 49.225 109.714 109.714v473.966c-0.037 20.187-16.384 36.571-36.608 36.571zM447.232 234.35v335.214c0 18.505-16.384 33.536-36.571 33.536s-36.571-15.031-36.571-33.536v-335.214c0-18.542 16.384-33.536 36.571-33.536s36.571 14.994 36.571 33.536zM650.642 234.35v335.214c0 18.505-16.347 33.536-36.571 33.536-20.187 0-36.571-15.031-36.571-33.536v-335.214c0-18.542 16.384-33.536 36.571-33.536 20.224 0 36.571 14.994 36.571 33.536z" />
<glyph unicode="&#xe936;" glyph-name="service" d="M340.193 570.327l-38.134 36.229c-10.547 9.974-27.628 9.974-38.195 0-10.506-9.994-10.506-26.214 0-36.229l38.195-36.209c10.547-9.994 27.587-9.994 38.134 0s10.547 26.194 0 36.209zM512 898.56c248.443 0 450.56-202.117 450.56-450.56s-202.117-450.56-450.56-450.56-450.56 202.117-450.56 450.56 202.117 450.56 450.56 450.56zM512 960c-282.808 0-512-229.192-512-512s229.192-512 512-512 512 229.192 512 512-229.192 512-512 512v0zM379.74 396.82c12.575 58.429 66.949 102.38 132.26 102.38s119.767-43.95 132.26-102.38h54.026c-13.332 86.589-91.279 153.58-186.286 153.58-94.925 0-172.913-66.99-186.184-153.58h53.924zM512 601.6c14.95 0 26.993 11.489 26.993 25.6v51.2c0 14.111-12.042 25.6-26.993 25.6-14.93 0-26.993-11.489-26.993-25.6v-51.22c0-14.090 12.063-25.58 26.993-25.58zM760.074 606.536c-10.568 10.015-27.648 10.015-38.134 0l-38.134-36.229c-10.588-9.994-10.588-26.194 0-36.209 10.527-9.994 27.607-9.994 38.134 0l38.134 36.209c10.588 9.994 10.588 26.214 0 36.229zM673.956 345.58h-323.912c-14.909 0-26.993-11.469-26.993-25.6 0-14.090 12.083-25.58 26.993-25.58h323.912c14.93 0 26.993 11.489 26.993 25.58 0.020 14.131-12.063 25.6-26.993 25.6zM619.95 243.2h-215.9c-14.93 0-26.972-11.448-26.972-25.58s12.063-25.6 26.972-25.6h215.921c14.93 0 27.034 11.469 27.034 25.6s-12.104 25.58-27.054 25.58z" />
<glyph unicode="&#xe937;" glyph-name="receiving" d="M996.598 214.364c-26.481 44.155-26.030 44.995-26.030 44.995s-91.443-25.661-108.483 61.993c-52.982 0-52.982 0-52.982 0s-14.623-87.777-108.052-61.809c-27.013-45.036-27.914-46.449-27.955-46.469 0.041-0.020 73.134-51.098 0-120.463 28.385-46.674 28.385-46.674 28.385-46.674s80.732 34.836 107.213-60.314c53.596 0 53.596 0 53.596 0s16.794 87.47 107.622 61.604c25.866 44.134 26.296 44.564 26.296 44.564s-68.567 59.126 0.389 122.573zM834.437 91.709c-34.161 0-61.85 27.668-61.85 61.809s27.689 61.829 61.85 61.829c34.12 0 61.809-27.689 61.809-61.829s-27.689-61.809-61.809-61.809zM813.138 763.72c-209.736-105.861-342.589-420.434-342.589-420.434l-82.125 155.402-169.411-100.25c71.823-25.129 174.531-105.329 261.734-210.596 61.583 110.285 251.494 335.872 343.859 355.922-35.615 79.626-15.688 144.425-10.363 218.89zM657.838 21.791c-45.773-15.688-94.802-24.351-145.838-24.351-248.443 0-450.56 202.117-450.56 450.56s202.117 450.56 450.56 450.56 450.56-202.117 450.56-450.56c0-36.782-4.547-72.499-12.882-106.742 19.436-11.96 36.905-26.788 51.732-43.991 14.664 47.657 22.589 98.263 22.589 150.733 0 282.788-229.212 512-512 512-282.767 0-512-229.212-512-512 0-282.767 229.233-512 512-512 68.792 0 134.369 13.66 194.294 38.257-18.534 13.271-34.836 29.307-48.456 47.534z" />
<glyph unicode="&#xe938;" glyph-name="logistics" d="M983.286 874.742h-600.576c-22.487 0-40.694-18.227-40.694-40.694v-130.56h-174.080c-4.588 0-8.868-1.085-12.739-2.867-7.086-2.109-13.414-6.656-17.51-13.476l-137.687-228.188v-235.52c0-16.957 13.742-30.72 30.72-30.72h65.618c-5.386-13.967-8.438-29.041-8.438-44.872 0-69.919 56.709-126.607 126.587-126.607 69.919 0 126.566 56.689 126.566 126.607 0 15.831-3.072 30.925-8.438 44.872h318.444c-5.366-13.967-8.438-29.041-8.438-44.872 0-69.919 56.689-126.607 126.607-126.607 69.878 0 126.566 56.689 126.566 126.607 0 15.831-3.113 30.925-8.479 44.872h96.031c22.487 0 40.673 18.289 40.673 40.714v600.617c-0.020 22.487-18.268 40.694-40.735 40.694zM214.467 82.678c-35.922 0-65.147 29.245-65.147 65.167 0 4.403 0.43 8.684 1.29 12.8 0.635 3.318 1.638 6.513 2.826 9.646 0.655 1.802 1.495 3.523 2.335 5.243 0.512 1.167 1.065 2.232 1.638 3.359 1.229 2.15 2.519 4.239 3.953 6.287 0.287 0.41 0.532 0.758 0.819 1.167 1.7 2.232 3.502 4.444 5.468 6.431h93.512c2.007-2.089 3.809-4.198 5.489-6.472 0.307-0.369 0.532-0.717 0.799-1.085 1.434-2.048 2.765-4.116 3.953-6.328 0.594-1.126 1.126-2.191 1.679-3.359 0.819-1.72 1.659-3.441 2.314-5.243 1.167-3.072 2.15-6.328 2.847-9.646 0.84-4.116 1.29-8.397 1.29-12.8 0.020-35.922-29.143-65.167-65.065-65.167zM342.016 254.157h-280.576v163.881h163.205c16.978 0 30.72 13.763 30.72 30.72 0 16.978-13.742 30.72-30.72 30.72h-140.493l98.038 162.57h159.826v-387.891zM834.273 147.845c0-35.922-29.245-65.167-65.126-65.167-35.963 0-65.167 29.245-65.167 65.167 0 17.449 6.963 33.239 18.248 44.872h93.798c11.284-11.633 18.248-27.443 18.248-44.872zM962.56 254.157h-559.104v559.145h559.104v-559.145z" />
<glyph unicode="&#xe939;" glyph-name="checked" d="M512 960c-282.761 0-512-229.239-512-512s229.239-512 512-512 512 229.239 512 512-229.239 512-512 512zM772.335 581.939c-5.632-5.598-7.578-7.543-7.578-7.543l-298.018-298.052c0 0-1.911-1.877-7.543-7.543-12.493-12.493-32.768-12.493-45.261 0-5.632 5.666-7.543 7.543-7.543 7.543l-147.183 147.217c0 0-1.946 1.911-7.543 7.543-12.527 12.527-12.527 32.768 0 45.261 12.459 12.527 32.734 12.527 45.227 0 6.281-6.246 7.543-7.509 7.543-7.509l132.13-132.164 282.965 282.999c0 0 1.911 1.877 7.543 7.509 12.493 12.527 32.768 12.527 45.261 0 12.493-12.493 12.493-32.768 0-45.261z" />
<glyph unicode="&#xe93a;" glyph-name="contact" d="M921.6 755.2v-614.4h-819.2v614.4h819.2zM921.6 857.6h-819.2c-56.525 0-102.4-45.841-102.4-102.4v-614.4c0-56.559 45.875-102.4 102.4-102.4h819.2c56.559 0 102.4 45.841 102.4 102.4v614.4c0 56.559-45.841 102.4-102.4 102.4v0zM882.927 620.066c-15.531 23.62-47.241 30.106-70.929 14.609l-299.998-197.53-300.032 197.53c-23.62 15.565-55.364 9.011-70.895-14.609-15.565-23.62-9.011-55.364 14.609-70.929l328.192-216.064c0.614-0.41 1.297-0.512 1.877-0.853 2.833-1.707 5.769-3.004 8.806-4.096 1.365-0.512 2.662-1.161 4.062-1.536 4.198-1.161 8.533-1.843 12.902-1.877 0.137 0 0.307-0.068 0.444-0.068 0 0 0.034 0 0.034 0h0.034c0.171 0 0.307 0.068 0.478 0.068 4.369 0.034 8.704 0.717 12.902 1.877 1.365 0.375 2.662 1.024 4.028 1.536 3.038 1.092 6.007 2.389 8.841 4.062 0.614 0.375 1.297 0.512 1.911 0.887l328.158 216.064c23.586 15.531 30.106 47.309 14.575 70.929z" />
<glyph unicode="&#xe93b;" glyph-name="follow-big" d="M896 550.4h-332.8v332.8c0 42.394-34.406 76.8-76.8 76.8s-76.8-34.406-76.8-76.8v-332.8h-332.8c-42.394 0-76.8-34.406-76.8-76.8s34.406-76.8 76.8-76.8h332.8v-332.8c0-42.394 34.406-76.8 76.8-76.8s76.8 34.406 76.8 76.8v332.8h332.8c42.394 0 76.8 34.406 76.8 76.8s-34.406 76.8-76.8 76.8z" />
<glyph unicode="&#xe93c;" glyph-name="share-social" horiz-adv-x="1156" d="M0-35.573c0 0 0 645.137 694.276 732.301v197.227c0 54.719 32.461 68.49 72.354 30.9l362.833-341.883c26.569-25.035 26.39-65.456-0.214-90.113l-355.366-329.353c-40.263-37.316-72.903-23.28-72.903 31.541v201.027c0 0-491.98 0-700.98-431.647z" />
<glyph unicode="&#xe93d;" glyph-name="unchecked" d="M512 891.733c244.668 0 443.733-199.066 443.733-443.733s-199.066-443.733-443.733-443.733-443.733 199.066-443.733 443.733 199.066 443.733 443.733 443.733zM512 960c-282.761 0-512-229.239-512-512s229.239-512 512-512 512 229.239 512 512-229.239 512-512 512v0z" />
<glyph unicode="&#xe93e;" glyph-name="guide" d="M512 898.58c248.443 0 450.56-202.117 450.56-450.58 0.041-120.136-46.879-233.247-132.096-318.444-85.176-85.238-198.308-132.157-318.464-132.157-248.443 0-450.56 202.158-450.56 450.621 0 248.443 202.117 450.56 450.56 450.56zM512 960.020c-282.317 0-512-229.765-512-512 0-282.399 229.683-512.061 512-512.061 282.358 0 512.082 229.683 512 512.061 0 282.276-229.683 512-512 512v0zM562.36 526.5l-0.041 0.41-334.418 104.776 235.274-258.519-0.389-0.635 1.454-0.41v-0.123l0.061 0.082 331.715-107.807-233.656 262.226zM512 406.036c-23.122 0-41.902 18.719-41.902 41.984 0 23.142 18.78 41.984 41.902 41.984s41.923-18.842 41.923-41.984c0.041-23.265-18.801-41.984-41.923-41.984z" />
<glyph unicode="&#xe93f;" glyph-name="goods-return" d="M737.28 510.71h-450.56c-16.978 0-30.72-13.763-30.72-30.72 0-16.998 13.742-30.72 30.72-30.72h450.56c16.957 0 30.72 13.722 30.72 30.72 0 16.978-13.763 30.72-30.72 30.72zM737.28 351.089h-450.56c-16.978 0-30.72-13.763-30.72-30.72s13.742-30.72 30.72-30.72h450.56c16.957 0 30.72 13.763 30.72 30.72s-13.763 30.72-30.72 30.72zM737.28 191.488h-450.56c-16.978 0-30.72-13.783-30.72-30.72 0-16.957 13.742-30.72 30.72-30.72h450.56c16.957 0 30.72 13.763 30.72 30.72 0 16.937-13.763 30.72-30.72 30.72zM878.080 832h-142.090v64h-88.125c-33.792 38.707-83.374 64-137.708 64s-102.175-25.293-134.881-64h-87.265v-64h-142.090c-45.24 0-81.92-36.68-81.92-81.92v-732.16c0-45.24 36.68-81.92 81.92-81.92h732.16c45.24 0 81.92 36.68 81.92 81.92v732.16c0 45.24-36.68 81.92-81.92 81.92zM349.45 834.56h49.070v0.328h9.073c20.746 36.25 57.876 63.672 102.564 63.672s85.524-27.423 106.291-63.672h9.912v-0.328h48.21v-133.12h-325.12v133.12zM898.56 17.92c0-11.305-9.175-20.48-20.48-20.48h-732.16c-11.284 0-20.48 9.175-20.48 20.48v732.16c0 11.284 9.196 20.48 20.48 20.48h142.090v-130.56h448v130.56h142.090c11.305 0 20.48-9.196 20.48-20.48v-732.16z" />
<glyph unicode="&#xe940;" glyph-name="sf" d="M512 891.733c244.668 0 443.733-199.066 443.733-443.733s-199.066-443.733-443.733-443.733c-244.668 0-443.733 199.066-443.733 443.733s199.066 443.733 443.733 443.733zM512 960c-282.761 0-512-229.239-512-512s229.239-512 512-512 512 229.239 512 512-229.239 512-512 512v0zM477.833 357.478c0.922-83.251-72.329-114.415-128.034-114.415-55.671 0-127.283 38.741-127.283 38.741s-0.649 73.148-0.649 80.623c1.195-5.632 13.312-28.092 79.189-45.022 31.983-8.226 70.246-3.823 85.641 13.995 16.35 18.944 24.337 41.233-3.516 69.359-27.819 28.023-139.23 38.161-158.686 132.403-19.49 94.106 91.921 119.501 133.632 119.501 63.113 0 102.673-34.133 102.673-34.133s-0.683-67.004 0-68.267c-16.657 22.835-38.502 39.458-92.979 39.561-20.753 0-65.911-7.202-70.178-41.882-3.686-30.276 62.293-62.532 91.102-71.578 36.079-10.957 88.405-56.491 89.088-118.886v0zM801.792 624.777l0.341-74.513h-34.133c0 0-14.814 48.026-74.342 49.015-56.934 0.922-95.676-25.771-96.324-49.015 0.956-9.148 0-307.2 0-307.2h-68.267c0 0-1.877 378.948 0 375.467 9.25 15.326 82.432 32.154 136.533 34.133 96.563 3.345 136.192-27.887 136.192-27.887v0zM759.535 438.647c0-29.73-24.337-53.794-54.409-53.794-30.037 0-54.409 24.064-54.409 53.794 0 29.696 24.371 53.794 54.409 53.794 30.071 0 54.409-24.098 54.409-53.794v0z" />
<glyph unicode="&#xe941;" glyph-name="seven-day" d="M939.593 886.857c6.546-105.728 10.825-297.399 10.825-358.875 0-430.775-345.819-518.839-438.418-518.839s-438.418 88.064-438.418 518.839c0 61.477 4.279 253.184 10.862 358.875h855.15zM1006.226 960h-988.416c-10.971-66.487-17.408-359.973-17.408-432.018 0.037-450.67 350.574-591.982 511.598-591.982 161.061 0 511.561 141.312 511.561 592.018 0 72.009-6.4 365.495-17.335 431.982v0zM351.963 627.2h236.361v-1.426l-210.322-424.558h83.712l210.322 442.185v51.383h-320.073v-67.584z" />
<glyph unicode="&#xe942;" glyph-name="play" d="M674.062 494.27c-76.786 53.234-154.169 106.875-211.84 145.73-58.572 39.462-78.222 49.934-78.222-35.556v-312.889c0-84.968 19.072-73.818 78.222-35.556 51.75 33.479 135.585 92.601 211.143 145.683 55.77 39.182 55.846 54.357 0.697 92.587z" />
</font>
</defs>
</svg>
